<svg version="1.1" viewBox="0.0 0.0 960.0 540.0" fill="none" stroke="none" stroke-linecap="square" stroke-miterlimit="10" xmlns:xlink="http://www.w3.org/1999/xlink" xmlns="http://www.w3.org/2000/svg"><clipPath id="g5ee6078591_0_249.0"><path d="m0 0l960.0 0l0 540.0l-960.0 0l0 -540.0z" clip-rule="nonzero"/></clipPath><g clip-path="url(#g5ee6078591_0_249.0)"><path fill="#ffffff" d="m0 0l960.0 0l0 540.0l-960.0 0z" fill-rule="evenodd"/><path fill="#4a86e8" d="m853.4753 9.929133l95.93701 0l0 36.7874l-95.93701 0z" fill-rule="evenodd"/><path fill="#ffffff" d="m887.0266 34.26096q-0.296875 0 -0.484375 -0.171875q-0.171875 -0.1875 -0.171875 -0.5l0 -10.046875q0 -0.28125 0.1875 -0.453125q0.1875 -0.1875 0.484375 -0.1875l3.796875 0q1.765625 0 2.75 0.875q0.984375 0.859375 0.984375 2.4375q0 1.578125 -1.0 2.46875q-0.984375 0.875 -2.734375 0.875l-3.15625 0l0 4.03125q0 0.3125 -0.171875 0.5q-0.171875 0.171875 -0.484375 0.171875zm3.6875 -5.796875q2.5625 0 2.5625 -2.25q0 -2.21875 -2.5625 -2.21875l-3.03125 0l0 4.46875l3.03125 0zm6.6481323 5.71875q-0.296875 0 -0.484375 -0.171875q-0.1875 -0.1875 -0.1875 -0.46875l0 -10.0q0 -0.28125 0.1875 -0.453125q0.1875 -0.1875 0.484375 -0.1875l3.125 0q2.703125 0 4.171875 1.46875q1.484375 1.453125 1.484375 4.171875q0 2.703125 -1.484375 4.171875q-1.484375 1.46875 -4.171875 1.46875l-3.125 0zm3.046875 -1.125q4.375 0 4.375 -4.515625q0 -4.515625 -4.375 -4.515625l-2.40625 0l0 9.03125l2.40625 0zm14.511536 -4.671875q0.96875 0.265625 1.5 0.96875q0.546875 0.703125 0.546875 1.75q0 1.5 -0.984375 2.296875q-0.96875 0.78125 -2.765625 0.78125l-4.03125 0q-0.296875 0 -0.484375 -0.171875q-0.1875 -0.1875 -0.1875 -0.46875l0 -10.0q0 -0.28125 0.1875 -0.453125q0.1875 -0.1875 0.484375 -0.1875l3.859375 0q1.734375 0 2.6875 0.765625q0.96875 0.765625 0.96875 2.171875q0 0.921875 -0.46875 1.578125q-0.46875 0.65625 -1.3125 0.96875zm-5.109375 -0.46875l3.046875 0q1.25 0 1.890625 -0.515625q0.65625 -0.515625 0.65625 -1.484375q0 -1.921875 -2.546875 -1.921875l-3.046875 0l0 3.921875zm3.28125 5.171875q1.328125 0 1.953125 -0.484375q0.640625 -0.484375 0.640625 -1.53125q0 -2.078125 -2.59375 -2.078125l-3.28125 0l0 4.09375l3.28125 0z" fill-rule="nonzero"/><path fill="#4a86e8" d="m750.3753 9.929133l95.93701 0l0 36.7874l-95.93701 0z" fill-rule="evenodd"/><path fill="#ffffff" d="m778.9921 34.307835q-1.1875 0 -2.296875 -0.359375q-1.09375 -0.359375 -1.75 -0.96875q-0.234375 -0.21875 -0.234375 -0.5625q0 -0.21875 0.125 -0.375q0.125 -0.171875 0.3125 -0.171875q0.203125 0 0.4375 0.171875q1.5 1.15625 3.390625 1.15625q1.390625 0 2.125 -0.53125q0.734375 -0.53125 0.734375 -1.515625q0 -0.546875 -0.359375 -0.890625q-0.34375 -0.34375 -0.921875 -0.546875q-0.578125 -0.21875 -1.5625 -0.4375q-1.296875 -0.3125 -2.140625 -0.640625q-0.84375 -0.34375 -1.375 -0.96875q-0.515625 -0.625 -0.515625 -1.625q0 -0.96875 0.515625 -1.703125q0.53125 -0.75 1.46875 -1.15625q0.9375 -0.40625 2.140625 -0.40625q1.109375 0 2.078125 0.34375q0.96875 0.34375 1.625 0.984375q0.265625 0.25 0.265625 0.5625q0 0.21875 -0.140625 0.390625q-0.125 0.171875 -0.296875 0.171875q-0.171875 0 -0.46875 -0.1875q-0.78125 -0.640625 -1.453125 -0.890625q-0.671875 -0.25 -1.609375 -0.25q-1.328125 0 -2.078125 0.546875q-0.734375 0.546875 -0.734375 1.546875q0 0.84375 0.640625 1.265625q0.65625 0.421875 2.0 0.75q1.46875 0.34375 2.296875 0.640625q0.828125 0.296875 1.375 0.890625q0.5625 0.59375 0.5625 1.578125q0 0.953125 -0.53125 1.671875q-0.515625 0.71875 -1.46875 1.125q-0.9375 0.390625 -2.15625 0.390625zm6.7470703 -0.046875q-0.296875 0 -0.484375 -0.15625q-0.171875 -0.171875 -0.171875 -0.484375l0 -6.75q0 -0.296875 0.171875 -0.46875q0.1875 -0.171875 0.484375 -0.171875q0.28125 0 0.453125 0.171875q0.1875 0.171875 0.1875 0.46875l0 6.75q0 0.328125 -0.1875 0.484375q-0.171875 0.15625 -0.453125 0.15625zm-0.015625 -9.703125q-0.375 0 -0.625 -0.21875q-0.234375 -0.234375 -0.234375 -0.609375q0 -0.34375 0.234375 -0.5625q0.25 -0.234375 0.625 -0.234375q0.390625 0 0.625 0.234375q0.25 0.21875 0.25 0.5625q0 0.375 -0.25 0.609375q-0.234375 0.21875 -0.625 0.21875zm11.743225 1.640625q2.59375 0 2.59375 3.09375l0 4.328125q0 0.3125 -0.1875 0.484375q-0.171875 0.15625 -0.453125 0.15625q-0.296875 0 -0.484375 -0.15625q-0.171875 -0.171875 -0.171875 -0.484375l0 -4.296875q0 -1.078125 -0.390625 -1.546875q-0.375 -0.484375 -1.203125 -0.484375q-0.96875 0 -1.53125 0.65625q-0.5625 0.65625 -0.5625 1.765625l0 3.90625q0 0.3125 -0.1875 0.484375q-0.171875 0.15625 -0.46875 0.15625q-0.28125 0 -0.46875 -0.15625q-0.171875 -0.171875 -0.171875 -0.484375l0 -4.296875q0 -1.078125 -0.390625 -1.546875q-0.375 -0.484375 -1.203125 -0.484375q-0.96875 0 -1.53125 0.65625q-0.5625 0.65625 -0.5625 1.765625l0 3.90625q0 0.3125 -0.1875 0.484375q-0.171875 0.15625 -0.453125 0.15625q-0.296875 0 -0.484375 -0.15625q-0.171875 -0.171875 -0.171875 -0.484375l0 -6.75q0 -0.28125 0.171875 -0.453125q0.1875 -0.1875 0.484375 -0.1875q0.265625 0 0.4375 0.171875q0.1875 0.171875 0.1875 0.453125l0 0.765625q0.34375 -0.6875 0.96875 -1.046875q0.625 -0.375 1.4375 -0.375q1.828125 0 2.390625 1.53125q0.328125 -0.703125 1.015625 -1.109375q0.6875 -0.421875 1.578125 -0.421875zm8.882019 0q1.015625 0 1.796875 0.515625q0.796875 0.515625 1.21875 1.4375q0.4375 0.90625 0.4375 2.125q0 1.21875 -0.4375 2.125q-0.421875 0.90625 -1.203125 1.40625q-0.78125 0.484375 -1.8125 0.484375q-0.921875 0 -1.609375 -0.390625q-0.671875 -0.40625 -1.015625 -1.140625l0 3.765625q0 0.28125 -0.171875 0.4375q-0.171875 0.171875 -0.46875 0.171875q-0.3125 0 -0.484375 -0.171875q-0.171875 -0.171875 -0.171875 -0.4375l0 -9.65625q0 -0.28125 0.171875 -0.453125q0.171875 -0.1875 0.484375 -0.1875q0.296875 0 0.46875 0.1875q0.171875 0.171875 0.171875 0.453125l0 0.859375q0.34375 -0.734375 1.015625 -1.125q0.6875 -0.40625 1.609375 -0.40625zm-0.265625 7.03125q1.140625 0 1.765625 -0.765625q0.625 -0.78125 0.625 -2.1875q0 -1.40625 -0.625 -2.1875q-0.625 -0.796875 -1.765625 -0.796875q-1.125 0 -1.75 0.765625q-0.609375 0.765625 -0.609375 2.1875q0 1.421875 0.609375 2.203125q0.625 0.78125 1.75 0.78125zm6.3120117 1.03125q-0.296875 0 -0.484375 -0.15625q-0.171875 -0.171875 -0.171875 -0.484375l0 -10.15625q0 -0.3125 0.171875 -0.46875q0.1875 -0.171875 0.484375 -0.171875q0.265625 0 0.453125 0.171875q0.1875 0.15625 0.1875 0.46875l0 10.15625q0 0.3125 -0.1875 0.484375q-0.1875 0.15625 -0.453125 0.15625zm9.087036 -1.890625q0.171875 0 0.296875 0.15625q0.125 0.140625 0.125 0.359375q0 0.40625 -0.546875 0.734375q-0.578125 0.34375 -1.21875 0.515625q-0.640625 0.15625 -1.25 0.15625q-1.8125 0 -2.859375 -1.0625q-1.046875 -1.078125 -1.046875 -2.96875q0 -1.203125 0.453125 -2.109375q0.46875 -0.921875 1.3125 -1.4375q0.84375 -0.515625 1.921875 -0.515625q1.515625 0 2.40625 1.0q0.90625 0.984375 0.90625 2.6875q0 0.3125 -0.140625 0.453125q-0.125 0.140625 -0.40625 0.140625l-5.15625 0q0.140625 2.765625 2.609375 2.765625q0.625 0 1.0625 -0.171875q0.453125 -0.171875 0.96875 -0.453125q0.421875 -0.25 0.5625 -0.25zm-2.796875 -5.15625q-1.03125 0 -1.65625 0.640625q-0.609375 0.625 -0.71875 1.796875l4.53125 0q-0.03125 -1.1875 -0.59375 -1.8125q-0.5625 -0.625 -1.5625 -0.625z" fill-rule="nonzero"/><path fill="#cfe2f3" d="m520.5135 258.61465l183.14996 0l0 11.168152l-183.14996 0z" fill-rule="evenodd"/><path fill="#cfe2f3" d="m520.5135 239.25145l183.14996 0l0 11.168152l-183.14996 0z" fill-rule="evenodd"/><path fill="#3c78d8" d="m245.33119 239.25145l209.48848 0l0 11.168152l-209.48848 0z" fill-rule="evenodd"/><path fill="#ff0000" d="m454.75613 239.25145l48.141205 0l0 11.168152l-48.141205 0z" fill-rule="evenodd"/><path fill="#3c78d8" d="m260.83508 258.61465l260.031 0l0 11.168152l-260.031 0z" fill-rule="evenodd"/><path fill="#ff0000" d="m213.6087 258.61465l47.22638 0l0 11.168152l-47.22638 0z" fill-rule="evenodd"/><path fill="#cfe2f3" d="m158.41597 239.25145l86.9057 0l0 11.168152l-86.9057 0z" fill-rule="evenodd"/><path fill="#cfe2f3" d="m158.41595 258.61465l55.19275 0l0 11.168152l-55.19275 0z" fill-rule="evenodd"/><path fill="#3c78d8" d="m502.57333 239.25145l17.952911 0l0 11.168152l-17.952911 0z" fill-rule="evenodd"/><path fill="#000000" fill-opacity="0.0" d="m244.006 128.90549l101.85826 0l0 28.629913l-101.85826 0z" fill-rule="evenodd"/><path fill="#1155cc" d="m253.72475 145.39294l1.4375 -0.125q0.09375 0.859375 0.46875 1.421875q0.37498474 0.546875 1.1562347 0.890625q0.78125 0.328125 1.75 0.328125q0.875 0 1.53125 -0.25q0.671875 -0.265625 0.984375 -0.703125q0.328125 -0.453125 0.328125 -0.984375q0 -0.546875 -0.3125 -0.9375q-0.3125 -0.40625 -1.03125 -0.6875q-0.453125 -0.171875 -2.03125 -0.546875q-1.578125 -0.390625 -2.2187347 -0.71875q-0.8125 -0.4375 -1.21875 -1.0625q-0.40625 -0.640625 -0.40625 -1.4375q0 -0.859375 0.484375 -1.609375q0.5 -0.765625 1.4374847 -1.15625q0.953125 -0.390625 2.109375 -0.390625q1.28125 0 2.25 0.421875q0.96875 0.40625 1.484375 1.203125q0.53125 0.796875 0.578125 1.796875l-1.453125 0.109375q-0.125 -1.078125 -0.796875 -1.625q-0.671875 -0.5625 -2.0 -0.5625q-1.375 0 -2.0 0.5q-0.62498474 0.5 -0.62498474 1.21875q0 0.609375 0.43748474 1.015625q0.4375 0.390625 2.28125 0.8125q1.859375 0.421875 2.546875 0.734375q1.0 0.453125 1.46875 1.171875q0.484375 0.703125 0.484375 1.625q0 0.90625 -0.53125 1.71875q-0.515625 0.8125 -1.5 1.265625q-0.984375 0.453125 -2.203125 0.453125q-1.5625 0 -2.609375 -0.453125q-1.0468597 -0.46875 -1.6562347 -1.375q-0.59375 -0.90625 -0.625 -2.0625zm14.07811 2.421875l0.203125 1.25q-0.59375 0.125 -1.0625 0.125q-0.765625 0 -1.1875 -0.234375q-0.421875 -0.25 -0.59375 -0.640625q-0.171875 -0.40625 -0.171875 -1.671875l0 -4.765625l-1.03125 0l0 -1.09375l1.03125 0l0 -2.0625l1.40625 -0.84375l0 2.90625l1.40625 0l0 1.09375l-1.40625 0l0 4.84375q0 0.609375 0.0625 0.78125q0.078125 0.171875 0.25 0.28125q0.171875 0.09375 0.484375 0.09375q0.234375 0 0.609375 -0.0625zm1.3671875 1.265625l0 -8.296875l1.265625 0l0 1.25q0.484375 -0.875 0.890625 -1.15625q0.40625 -0.28125 0.90625 -0.28125q0.703125 0 1.4375 0.453125l-0.484375 1.296875q-0.515625 -0.296875 -1.03125 -0.296875q-0.453125 0 -0.828125 0.28125q-0.359375 0.265625 -0.515625 0.765625q-0.234375 0.75 -0.234375 1.640625l0 4.34375l-1.40625 0zm10.78125 0l0 -1.21875q-0.96875 1.40625 -2.640625 1.40625q-0.734375 0 -1.375 -0.28125q-0.625 -0.28125 -0.9375 -0.703125q-0.3125 -0.4375 -0.4375 -1.046875q-0.078125 -0.421875 -0.078125 -1.3125l0 -5.140625l1.40625 0l0 4.59375q0 1.109375 0.078125 1.484375q0.140625 0.5625 0.5625 0.875q0.4375 0.3125 1.0625 0.3125q0.640625 0 1.1875 -0.3125q0.5625 -0.328125 0.78125 -0.890625q0.234375 -0.5625 0.234375 -1.625l0 -4.4375l1.40625 0l0 8.296875l-1.25 0zm8.8671875 -3.046875l1.390625 0.1875q-0.234375 1.421875 -1.171875 2.234375q-0.921875 0.8125 -2.28125 0.8125q-1.703125 0 -2.75 -1.109375q-1.03125 -1.125 -1.03125 -3.203125q0 -1.34375 0.4375 -2.34375q0.453125 -1.015625 1.359375 -1.515625q0.921875 -0.5 1.984375 -0.5q1.359375 0 2.21875 0.6875q0.859375 0.671875 1.09375 1.9375l-1.359375 0.203125q-0.203125 -0.828125 -0.703125 -1.25q-0.484375 -0.421875 -1.1875 -0.421875q-1.0625 0 -1.734375 0.765625q-0.65625 0.75 -0.65625 2.40625q0 1.671875 0.640625 2.4375q0.640625 0.75 1.671875 0.75q0.828125 0 1.375 -0.5q0.5625 -0.515625 0.703125 -1.578125zm5.65625 1.78125l0.203125 1.25q-0.59375 0.125 -1.0625 0.125q-0.765625 0 -1.1875 -0.234375q-0.421875 -0.25 -0.59375 -0.640625q-0.171875 -0.40625 -0.171875 -1.671875l0 -4.765625l-1.03125 0l0 -1.09375l1.03125 0l0 -2.0625l1.40625 -0.84375l0 2.90625l1.40625 0l0 1.09375l-1.40625 0l0 4.84375q0 0.609375 0.0625 0.78125q0.078125 0.171875 0.25 0.28125q0.171875 0.09375 0.484375 0.09375q0.234375 0 0.609375 -0.0625zm6.8203125 1.265625l0 -1.21875q-0.96875 1.40625 -2.640625 1.40625q-0.734375 0 -1.375 -0.28125q-0.625 -0.28125 -0.9375 -0.703125q-0.3125 -0.4375 -0.4375 -1.046875q-0.078125 -0.421875 -0.078125 -1.3125l0 -5.140625l1.40625 0l0 4.59375q0 1.109375 0.078125 1.484375q0.140625 0.5625 0.5625 0.875q0.4375 0.3125 1.0625 0.3125q0.640625 0 1.1875 -0.3125q0.5625 -0.328125 0.78125 -0.890625q0.234375 -0.5625 0.234375 -1.625l0 -4.4375l1.40625 0l0 8.296875l-1.25 0zm3.4453125 0l0 -8.296875l1.265625 0l0 1.25q0.484375 -0.875 0.890625 -1.15625q0.40625 -0.28125 0.90625 -0.28125q0.703125 0 1.4375 0.453125l-0.484375 1.296875q-0.515625 -0.296875 -1.03125 -0.296875q-0.453125 0 -0.828125 0.28125q-0.359375 0.265625 -0.515625 0.765625q-0.234375 0.75 -0.234375 1.640625l0 4.34375l-1.40625 0zm11.015625 -2.671875l1.453125 0.171875q-0.34375 1.28125 -1.28125 1.984375q-0.921875 0.703125 -2.359375 0.703125q-1.828125 0 -2.890625 -1.125q-1.0625 -1.125 -1.0625 -3.140625q0 -2.09375 1.078125 -3.25q1.078125 -1.15625 2.796875 -1.15625q1.65625 0 2.703125 1.140625q1.0625 1.125 1.0625 3.171875q0 0.125 0 0.375l-6.1875 0q0.078125 1.375 0.765625 2.109375q0.703125 0.71875 1.734375 0.71875q0.78125 0 1.328125 -0.40625q0.546875 -0.40625 0.859375 -1.296875zm-4.609375 -2.28125l4.625 0q-0.09375 -1.046875 -0.53125 -1.5625q-0.671875 -0.8125 -1.734375 -0.8125q-0.96875 0 -1.640625 0.65625q-0.65625 0.640625 -0.71875 1.71875z" fill-rule="nonzero"/><path fill="#000000" fill-opacity="0.0" d="m32.72405 384.86545l113.22835 0l0 79.08661l-113.22835 0z" fill-rule="evenodd"/><path stroke="#b7b7b7" stroke-width="1.0" stroke-linejoin="round" stroke-linecap="butt" d="m32.72405 384.86545l113.22835 0l0 79.08661l-113.22835 0z" fill-rule="evenodd"/><path fill="#000000" d="m85.06959 407.03436l2.25 -0.21875q0.203125 1.140625 0.828125 1.671875q0.625 0.53125 1.671875 0.53125q1.125 0 1.6875 -0.46875q0.5625 -0.484375 0.5625 -1.109375q0 -0.40625 -0.234375 -0.6875q-0.234375 -0.296875 -0.828125 -0.5q-0.40625 -0.140625 -1.859375 -0.5q-1.859375 -0.46875 -2.609375 -1.140625q-1.046875 -0.9375 -1.046875 -2.296875q0 -0.875 0.484375 -1.640625q0.5 -0.765625 1.4375 -1.15625q0.9375 -0.40625 2.25 -0.40625q2.15625 0 3.25 0.953125q1.09375 0.9375 1.140625 2.515625l-2.3125 0.109375q-0.140625 -0.890625 -0.640625 -1.265625q-0.484375 -0.390625 -1.453125 -0.390625q-1.015625 0 -1.578125 0.40625q-0.375 0.265625 -0.375 0.71875q0 0.40625 0.34375 0.6875q0.4375 0.375 2.125 0.78125q1.6875 0.390625 2.5 0.8125q0.8125 0.421875 1.265625 1.171875q0.453125 0.734375 0.453125 1.8125q0 0.984375 -0.546875 1.84375q-0.546875 0.859375 -1.546875 1.28125q-1.0 0.421875 -2.484375 0.421875q-2.171875 0 -3.34375 -1.0q-1.15625 -1.015625 -1.390625 -2.9375zm11.25 -5.6875l0 -2.03125l2.1875 0l0 2.03125l-2.1875 0zm0 9.421875l0 -8.296875l2.1875 0l0 8.296875l-2.1875 0zm4.2734375 -8.296875l2.03125 0l0 1.125q1.078125 -1.3125 2.578125 -1.3125q0.796875 0 1.375 0.328125q0.59375 0.328125 0.96875 0.984375q0.546875 -0.65625 1.171875 -0.984375q0.640625 -0.328125 1.359375 -0.328125q0.921875 0 1.546875 0.375q0.640625 0.359375 0.953125 1.078125q0.21875 0.53125 0.21875 1.71875l0 5.3125l-2.1875 0l0 -4.75q0 -1.234375 -0.234375 -1.59375q-0.296875 -0.46875 -0.9375 -0.46875q-0.453125 0 -0.859375 0.28125q-0.40625 0.28125 -0.59375 0.828125q-0.171875 0.546875 -0.171875 1.71875l0 3.984375l-2.203125 0l0 -4.546875q0 -1.21875 -0.125 -1.5625q-0.109375 -0.359375 -0.359375 -0.53125q-0.234375 -0.171875 -0.65625 -0.171875q-0.515625 0 -0.921875 0.28125q-0.40625 0.265625 -0.578125 0.78125q-0.171875 0.515625 -0.171875 1.71875l0 4.03125l-2.203125 0l0 -8.296875zm14.3359375 0l2.046875 0l0 1.21875q0.390625 -0.625 1.0625 -1.015625q0.6875 -0.390625 1.515625 -0.390625q1.453125 0 2.453125 1.140625q1.015625 1.125 1.015625 3.140625q0 2.078125 -1.015625 3.234375q-1.015625 1.15625 -2.46875 1.15625q-0.6875 0 -1.25 -0.265625q-0.546875 -0.28125 -1.171875 -0.953125l0 4.1875l-2.1875 0l0 -11.453125zm2.171875 4.0q0 1.40625 0.546875 2.078125q0.5625 0.65625 1.359375 0.65625q0.765625 0 1.265625 -0.609375q0.515625 -0.609375 0.515625 -2.015625q0 -1.296875 -0.53125 -1.921875q-0.515625 -0.640625 -1.296875 -0.640625q-0.796875 0 -1.328125 0.625q-0.53125 0.609375 -0.53125 1.828125zm7.6640625 4.296875l0 -11.453125l2.1875 0l0 11.453125l-2.1875 0zm9.24218 -2.640625l2.1875 0.359375q-0.421875 1.203125 -1.328125 1.84375q-0.90625 0.625 -2.28125 0.625q-2.15625 0 -3.203125 -1.421875q-0.8125 -1.125 -0.8125 -2.859375q0 -2.0625 1.078125 -3.21875q1.078125 -1.171875 2.71875 -1.171875q1.859375 0 2.921875 1.21875q1.078125 1.21875 1.03125 3.75l-5.5 0q0.015625 0.96875 0.515625 1.515625q0.515625 0.546875 1.28125 0.546875q0.515625 0 0.859375 -0.28125q0.359375 -0.28125 0.53125 -0.90625zm0.125 -2.21875q-0.015625 -0.953125 -0.484375 -1.453125q-0.46875 -0.5 -1.140625 -0.5q-0.71875 0 -1.1875 0.53125q-0.46875 0.515625 -0.46875 1.421875l3.28125 0z" fill-rule="nonzero"/><path fill="#000000" d="m104.343025 439.76874l0 -11.453125l3.703125 0q2.109375 0 2.75 0.171875q0.984375 0.25 1.640625 1.125q0.671875 0.859375 0.671875 2.21875q0 1.0625 -0.390625 1.78125q-0.375 0.71875 -0.96875 1.125q-0.578125 0.40625 -1.1875 0.546875q-0.828125 0.15625 -2.40625 0.15625l-1.5 0l0 4.328125l-2.3125 0zm2.3125 -9.515625l0 3.25l1.265625 0q1.359375 0 1.8125 -0.171875q0.46875 -0.1875 0.734375 -0.5625q0.265625 -0.390625 0.265625 -0.90625q0 -0.625 -0.375 -1.03125q-0.359375 -0.40625 -0.921875 -0.5q-0.421875 -0.078125 -1.671875 -0.078125l-1.109375 0zm8.34375 -1.9375l4.234375 0q1.421875 0 2.171875 0.21875q1.015625 0.296875 1.734375 1.0625q0.71875 0.75 1.09375 1.84375q0.375 1.09375 0.375 2.703125q0 1.421875 -0.359375 2.4375q-0.421875 1.25 -1.21875 2.03125q-0.609375 0.578125 -1.625 0.90625q-0.765625 0.25 -2.046875 0.25l-4.359375 0l0 -11.453125zm2.3125 1.9375l0 7.578125l1.734375 0q0.96875 0 1.390625 -0.109375q0.5625 -0.140625 0.9375 -0.46875q0.375 -0.34375 0.609375 -1.109375q0.234375 -0.765625 0.234375 -2.09375q0 -1.328125 -0.234375 -2.03125q-0.234375 -0.71875 -0.65625 -1.109375q-0.421875 -0.40625 -1.078125 -0.546875q-0.484375 -0.109375 -1.890625 -0.109375l-1.046875 0zm9.2578125 -1.9375l4.5781174 0q1.359375 0 2.03125 0.109375q0.671875 0.109375 1.1875 0.46875q0.53125 0.359375 0.875 0.96875q0.359375 0.59375 0.359375 1.328125q0 0.8125 -0.4375 1.484375q-0.421875 0.671875 -1.171875 1.0q1.046875 0.3125 1.609375 1.046875q0.5625 0.734375 0.5625 1.71875q0 0.78125 -0.359375 1.53125q-0.359375 0.734375 -1.0 1.171875q-0.625 0.4375 -1.546875 0.546875q-0.578125 0.0625 -2.78125 0.078125l-3.9062424 0l0 -11.453125zm2.3124924 1.90625l0 2.640625l1.515625 0q1.359375 0 1.6875 -0.03125q0.59375 -0.078125 0.921875 -0.40625q0.34375 -0.34375 0.34375 -0.90625q0 -0.53125 -0.296875 -0.859375q-0.28125 -0.328125 -0.859375 -0.40625q-0.34375 -0.03125 -1.984375 -0.03125l-1.328125 0zm0 4.546875l0 3.0625l2.140625 0q1.25 0 1.59375 -0.0625q0.515625 -0.09375 0.828125 -0.453125q0.328125 -0.375 0.328125 -0.984375q0 -0.515625 -0.25 -0.875q-0.25 -0.359375 -0.71875 -0.515625q-0.46875 -0.171875 -2.046875 -0.171875l-1.875 0z" fill-rule="nonzero"/><path fill="#000000" fill-opacity="0.0" d="m889.4969 489.57657l57.606323 0l0 41.322845l-57.606323 0z" fill-rule="evenodd"/><path fill="#595959" d="m931.31573 506.74112l0 -1.125l6.1875 0l0 0.921875q-0.921875 0.96875 -1.8125 2.578125q-0.890625 1.59375 -1.375 3.2968445q-0.359375 1.203125 -0.453125 2.625l-1.203125 0q0.015625 -1.125 0.4375 -2.71875q0.421875 -1.5937195 1.203125 -3.0780945q0.796875 -1.484375 1.6875 -2.5l-4.671875 0z" fill-rule="nonzero"/><path fill="#cfe2f3" d="m158.41595 179.69838l399.69 0l0 11.168152l-399.69 0z" fill-rule="evenodd"/><path fill="#cfe2f3" d="m629.0726 179.69838l74.594055 0l0 11.168152l-74.594055 0z" fill-rule="evenodd"/><path fill="#ff0000" d="m557.6803 179.69838l71.39227 0l0 11.168152l-71.39227 0z" fill-rule="evenodd"/><path fill="#cfe2f3" d="m612.87305 199.06158l90.79358 0l0 11.168137l-90.79358 0z" fill-rule="evenodd"/><path fill="#cfe2f3" d="m158.41595 199.06158l399.69 0l0 11.168137l-399.69 0z" fill-rule="evenodd"/><path fill="#ff0000" d="m557.6803 199.06158l55.19275 0l0 11.168137l-55.19275 0z" fill-rule="evenodd"/><path fill="#000000" fill-opacity="0.0" d="m724.8937 171.57823l0 0c1.2446289 0 2.4382935 0.78785706 3.3183594 2.1902618c0.88012695 1.40242 1.3745117 3.3044891 1.3745117 5.287796l0 8.429703c0 4.13002 2.1011353 7.478058 4.692932 7.478058l0 0c-2.5917969 0 -4.692932 3.3480377 -4.692932 7.478058l0 8.429703c0 4.13002 -2.1010742 7.478073 -4.692871 7.478073z" fill-rule="evenodd"/><path fill="#000000" fill-opacity="0.0" d="m724.8937 171.57823l0 0c1.2446289 0 2.4382935 0.78785706 3.3183594 2.1902618c0.88012695 1.40242 1.3745117 3.3044891 1.3745117 5.287796l0 8.429703c0 4.13002 2.1011353 7.478058 4.692932 7.478058l0 0c-2.5917969 0 -4.692932 3.3480377 -4.692932 7.478058l0 8.429703c0 4.13002 -2.1010742 7.478073 -4.692871 7.478073" fill-rule="evenodd"/><path stroke="#595959" stroke-width="2.0" stroke-linejoin="round" stroke-linecap="butt" d="m724.8937 171.57823l0 0c1.2446289 0 2.4382935 0.78785706 3.3183594 2.1902618c0.88012695 1.40242 1.3745117 3.3044891 1.3745117 5.287796l0 8.429703c0 4.13002 2.1011353 7.478058 4.692932 7.478058l0 0c-2.5917969 0 -4.692932 3.3480377 -4.692932 7.478058l0 8.429703c0 4.13002 -2.1010742 7.478073 -4.692871 7.478073" fill-rule="evenodd"/><path fill="#000000" fill-opacity="0.0" d="m763.7606 158.57977l135.37006 0l0 72.755905l-135.37006 0z" fill-rule="evenodd"/><path fill="#000000" d="m773.995 199.31772l0 -11.453125l3.953125 0q1.328125 0 2.03125 0.15625q0.984375 0.234375 1.6875 0.828125q0.90625 0.765625 1.34375 1.953125q0.453125 1.1875 0.453125 2.71875q0 1.3125 -0.3125 2.328125q-0.296875 1.0 -0.78125 1.65625q-0.46875 0.65625 -1.03125 1.046875q-0.5625 0.375 -1.375 0.578125q-0.796875 0.1875 -1.828125 0.1875l-4.140625 0zm1.515625 -1.359375l2.453125 0q1.125 0 1.765625 -0.203125q0.65625 -0.21875 1.03125 -0.59375q0.546875 -0.546875 0.84375 -1.453125q0.296875 -0.90625 0.296875 -2.203125q0 -1.796875 -0.59375 -2.765625q-0.578125 -0.96875 -1.421875 -1.296875q-0.609375 -0.234375 -1.96875 -0.234375l-2.40625 0l0 8.75zm9.8671875 -8.484375l0 -1.609375l1.40625 0l0 1.609375l-1.40625 0zm0 9.84375l0 -8.296875l1.40625 0l0 8.296875l-1.40625 0zm2.9921875 -2.484375l1.390625 -0.21875q0.109375 0.84375 0.640625 1.296875q0.546875 0.4375 1.5 0.4375q0.96875 0 1.4375 -0.390625q0.46875 -0.40625 0.46875 -0.9375q0 -0.46875 -0.40625 -0.75q-0.296875 -0.1875 -1.4375 -0.46875q-1.546875 -0.390625 -2.15625 -0.671875q-0.59375 -0.296875 -0.90625 -0.796875q-0.296875 -0.5 -0.296875 -1.109375q0 -0.5625 0.25 -1.03125q0.25 -0.46875 0.6875 -0.78125q0.328125 -0.25 0.890625 -0.40625q0.578125 -0.171875 1.21875 -0.171875q0.984375 0 1.71875 0.28125q0.734375 0.28125 1.078125 0.765625q0.359375 0.46875 0.5 1.28125l-1.375 0.1875q-0.09375 -0.640625 -0.546875 -1.0q-0.453125 -0.359375 -1.265625 -0.359375q-0.96875 0 -1.390625 0.328125q-0.40625 0.3125 -0.40625 0.734375q0 0.28125 0.171875 0.5q0.171875 0.21875 0.53125 0.375q0.21875 0.078125 1.25 0.359375q1.484375 0.390625 2.078125 0.65625q0.59375 0.25 0.921875 0.734375q0.34375 0.484375 0.34375 1.203125q0 0.703125 -0.421875 1.328125q-0.40625 0.609375 -1.1875 0.953125q-0.765625 0.34375 -1.734375 0.34375q-1.625 0 -2.46875 -0.671875q-0.84375 -0.671875 -1.078125 -2.0zm8.734375 2.484375l0 -11.453125l4.328125 0q1.140625 0 1.734375 0.109375q0.84375 0.140625 1.40625 0.53125q0.578125 0.390625 0.921875 1.109375q0.359375 0.703125 0.359375 1.5625q0 1.453125 -0.9375 2.46875q-0.921875 1.015625 -3.359375 1.015625l-2.9375 0l0 4.65625l-1.515625 0zm1.515625 -6.015625l2.96875 0q1.46875 0 2.078125 -0.546875q0.625 -0.546875 0.625 -1.53125q0 -0.71875 -0.375 -1.234375q-0.359375 -0.515625 -0.953125 -0.671875q-0.375 -0.109375 -1.40625 -0.109375l-2.9375 0l0 4.09375zm8.96875 6.015625l0 -8.296875l1.265625 0l0 1.25q0.484375 -0.875 0.890625 -1.15625q0.40625 -0.28125 0.90625 -0.28125q0.703125 0 1.4375 0.453125l-0.484375 1.296875q-0.515625 -0.296875 -1.03125 -0.296875q-0.453125 0 -0.828125 0.28125q-0.359375 0.265625 -0.515625 0.765625q-0.234375 0.75 -0.234375 1.640625l0 4.34375l-1.40625 0zm4.8125 -4.15625q0 -2.296875 1.28125 -3.40625q1.078125 -0.921875 2.609375 -0.921875q1.71875 0 2.796875 1.125q1.09375 1.109375 1.09375 3.09375q0 1.59375 -0.484375 2.515625q-0.484375 0.921875 -1.40625 1.4375q-0.90625 0.5 -2.0 0.5q-1.734375 0 -2.8125 -1.109375q-1.078125 -1.125 -1.078125 -3.234375zm1.453125 0q0 1.59375 0.6875 2.390625q0.703125 0.796875 1.75 0.796875q1.046875 0 1.734375 -0.796875q0.703125 -0.796875 0.703125 -2.4375q0 -1.53125 -0.703125 -2.328125q-0.6875 -0.796875 -1.734375 -0.796875q-1.046875 0 -1.75 0.796875q-0.6875 0.78125 -0.6875 2.375zm11.0390625 2.890625l0.203125 1.25q-0.59375 0.125 -1.0625 0.125q-0.765625 0 -1.1875 -0.234375q-0.421875 -0.25 -0.59375 -0.640625q-0.171875 -0.40625 -0.171875 -1.671875l0 -4.765625l-1.03125 0l0 -1.09375l1.03125 0l0 -2.0625l1.40625 -0.84375l0 2.90625l1.40625 0l0 1.09375l-1.40625 0l0 4.84375q0 0.609375 0.0625 0.78125q0.078125 0.171875 0.25 0.28125q0.171875 0.09375 0.484375 0.09375q0.234375 0 0.609375 -0.0625z" fill-rule="nonzero"/><path fill="#000000" fill-opacity="0.0" d="m763.7606 218.13782l135.37006 0l0 72.75592l-135.37006 0z" fill-rule="evenodd"/><path fill="#000000" d="m773.995 258.87576l0 -11.45311l4.328125 0q1.140625 0 1.734375 0.109375q0.84375 0.140625 1.40625 0.53125q0.578125 0.390625 0.921875 1.109375q0.359375 0.703125 0.359375 1.5625q0 1.453125 -0.9375 2.46875q-0.921875 1.015625 -3.359375 1.015625l-2.9375 0l0 4.6562347l-1.515625 0zm1.515625 -6.0156097l2.96875 0q1.46875 0 2.078125 -0.546875q0.625 -0.546875 0.625 -1.53125q0 -0.71875 -0.375 -1.234375q-0.359375 -0.515625 -0.953125 -0.671875q-0.375 -0.109375 -1.40625 -0.109375l-2.9375 0l0 4.09375zm9.15625 6.0156097l0 -11.45311l3.953125 0q1.328125 0 2.03125 0.15625q0.984375 0.234375 1.6875 0.828125q0.90625 0.765625 1.34375 1.953125q0.453125 1.1875 0.453125 2.71875q0 1.3125 -0.3125 2.328125q-0.296875 0.99998474 -0.78125 1.6562347q-0.46875 0.65625 -1.03125 1.046875q-0.5625 0.375 -1.375 0.578125q-0.796875 0.1875 -1.828125 0.1875l-4.140625 0zm1.515625 -1.359375l2.453125 0q1.125 0 1.765625 -0.203125q0.65625 -0.21875 1.03125 -0.59375q0.546875 -0.546875 0.84375 -1.4531097q0.296875 -0.90625 0.296875 -2.203125q0 -1.796875 -0.59375 -2.765625q-0.578125 -0.96875 -1.421875 -1.296875q-0.609375 -0.234375 -1.96875 -0.234375l-2.40625 0l0 8.749985zm9.9765625 1.359375l0 -11.45311l4.296875 0q1.3125 0 2.109375 0.34375q0.796875 0.34375 1.234375 1.078125q0.453125 0.71875 0.453125 1.5q0 0.734375 -0.40625 1.390625q-0.390625 0.640625 -1.1875 1.046875q1.03125 0.296875 1.59375 1.03125q0.5625 0.734375 0.5625 1.734375q0 0.81248474 -0.34375 1.4999847q-0.34375 0.6875 -0.84375 1.0625q-0.5 0.375 -1.25 0.578125q-0.75 0.1875 -1.84375 0.1875l-4.375 0zm1.515625 -6.6406097l2.484375 0q1.0 0 1.4375 -0.140625q0.578125 -0.171875 0.875 -0.5625q0.296875 -0.40625 0.296875 -1.0q0 -0.578125 -0.28125 -1.0q-0.265625 -0.4375 -0.78125 -0.59375q-0.5 -0.171875 -1.734375 -0.171875l-2.296875 0l0 3.46875zm0 5.2812347l2.859375 0q0.734375 0 1.03125 -0.046875q0.515625 -0.09375 0.859375 -0.3125q0.359375 -0.21875 0.578125 -0.640625q0.234375 -0.421875 0.234375 -0.96873474q0 -0.640625 -0.328125 -1.109375q-0.328125 -0.46875 -0.90625 -0.65625q-0.578125 -0.203125 -1.671875 -0.203125l-2.65625 0l0 3.9374847z" fill-rule="nonzero"/><path fill="#3c78d8" d="m244.00754 133.83861l-22.834656 0l0 17.039368l22.834656 0z" fill-rule="evenodd"/><path fill="#ff0000" d="m398.53857 133.83861l-22.834656 0l0 17.039368l22.834656 0z" fill-rule="evenodd"/><path fill="#cfe2f3" d="m550.73804 133.83861l-22.834595 0l0 17.039368l22.834595 0z" fill-rule="evenodd"/><path fill="#000000" fill-opacity="0.0" d="m398.5366 128.90549l101.85828 0l0 28.629913l-101.85828 0z" fill-rule="evenodd"/><path fill="#ff0000" d="m408.77097 149.08044l0 -11.453125l3.953125 0q1.328125 0 2.03125 0.15625q0.984375 0.234375 1.6875 0.828125q0.90625 0.765625 1.34375 1.953125q0.453125 1.1875 0.453125 2.71875q0 1.3125 -0.3125 2.328125q-0.296875 1.0 -0.78125 1.65625q-0.46875 0.65625 -1.03125 1.046875q-0.5625 0.375 -1.375 0.578125q-0.796875 0.1875 -1.828125 0.1875l-4.140625 0zm1.515625 -1.359375l2.453125 0q1.125 0 1.765625 -0.203125q0.65625 -0.21875 1.03125 -0.59375q0.546875 -0.546875 0.84375 -1.453125q0.296875 -0.90625 0.296875 -2.203125q0 -1.796875 -0.59375 -2.765625q-0.578125 -0.96875 -1.421875 -1.296875q-0.609375 -0.234375 -1.96875 -0.234375l-2.40625 0l0 8.75zm9.8671875 -8.484375l0 -1.609375l1.40625 0l0 1.609375l-1.40625 0zm0 9.84375l0 -8.296875l1.40625 0l0 8.296875l-1.40625 0zm2.9921875 -2.484375l1.390625 -0.21875q0.109375 0.84375 0.640625 1.296875q0.546875 0.4375 1.5 0.4375q0.96875 0 1.4375 -0.390625q0.46875 -0.40625 0.46875 -0.9375q0 -0.46875 -0.40625 -0.75q-0.296875 -0.1875 -1.4375 -0.46875q-1.546875 -0.390625 -2.15625 -0.671875q-0.59375 -0.296875 -0.90625 -0.796875q-0.296875 -0.5 -0.296875 -1.109375q0 -0.5625 0.25 -1.03125q0.25 -0.46875 0.6875 -0.78125q0.328125 -0.25 0.890625 -0.40625q0.578125 -0.171875 1.21875 -0.171875q0.984375 0 1.71875 0.28125q0.734375 0.28125 1.078125 0.765625q0.359375 0.46875 0.5 1.28125l-1.375 0.1875q-0.09375 -0.640625 -0.546875 -1.0q-0.453125 -0.359375 -1.265625 -0.359375q-0.96875 0 -1.390625 0.328125q-0.40625 0.3125 -0.40625 0.734375q0 0.28125 0.171875 0.5q0.171875 0.21875 0.53125 0.375q0.21875 0.078125 1.25 0.359375q1.484375 0.390625 2.078125 0.65625q0.59375 0.25 0.921875 0.734375q0.34375 0.484375 0.34375 1.203125q0 0.703125 -0.421875 1.328125q-0.40625 0.609375 -1.1875 0.953125q-0.765625 0.34375 -1.734375 0.34375q-1.625 0 -2.46875 -0.671875q-0.84375 -0.671875 -1.078125 -2.0zm8.03125 -1.671875q0 -2.296875 1.28125 -3.40625q1.078125 -0.921875 2.609375 -0.921875q1.71875 0 2.796875 1.125q1.09375 1.109375 1.09375 3.09375q0 1.59375 -0.484375 2.515625q-0.484375 0.921875 -1.40625 1.4375q-0.90625 0.5 -2.0 0.5q-1.734375 0 -2.8125 -1.109375q-1.078125 -1.125 -1.078125 -3.234375zm1.453125 0q0 1.59375 0.6875 2.390625q0.703125 0.796875 1.75 0.796875q1.046875 0 1.734375 -0.796875q0.703125 -0.796875 0.703125 -2.4375q0 -1.53125 -0.703125 -2.328125q-0.6875 -0.796875 -1.734375 -0.796875q-1.046875 0 -1.75 0.796875q-0.6875 0.78125 -0.6875 2.375zm7.9609375 4.15625l0 -8.296875l1.265625 0l0 1.25q0.484375 -0.875 0.890625 -1.15625q0.40625 -0.28125 0.90625 -0.28125q0.703125 0 1.4375 0.453125l-0.484375 1.296875q-0.515625 -0.296875 -1.03125 -0.296875q-0.453125 0 -0.828125 0.28125q-0.359375 0.265625 -0.515625 0.765625q-0.234375 0.75 -0.234375 1.640625l0 4.34375l-1.40625 0zm10.71875 0l0 -1.046875q-0.78125 1.234375 -2.3125 1.234375q-1.0 0 -1.828125 -0.546875q-0.828125 -0.546875 -1.296875 -1.53125q-0.453125 -0.984375 -0.453125 -2.25q0 -1.25 0.40625 -2.25q0.421875 -1.015625 1.25 -1.546875q0.828125 -0.546875 1.859375 -0.546875q0.75 0 1.328125 0.3125q0.59375 0.3125 0.953125 0.828125l0 -4.109375l1.40625 0l0 11.453125l-1.3125 0zm-4.4375 -4.140625q0 1.59375 0.671875 2.390625q0.671875 0.78125 1.578125 0.78125q0.921875 0 1.5625 -0.75q0.65625 -0.765625 0.65625 -2.3125q0 -1.703125 -0.65625 -2.5q-0.65625 -0.796875 -1.625 -0.796875q-0.9375 0 -1.5625 0.765625q-0.625 0.765625 -0.625 2.421875zm13.6328125 1.46875l1.453125 0.171875q-0.34375 1.28125 -1.28125 1.984375q-0.921875 0.703125 -2.359375 0.703125q-1.828125 0 -2.890625 -1.125q-1.0625 -1.125 -1.0625 -3.140625q0 -2.09375 1.078125 -3.25q1.078125 -1.15625 2.796875 -1.15625q1.65625 0 2.703125 1.140625q1.0625 1.125 1.0625 3.171875q0 0.125 0 0.375l-6.1875 0q0.078125 1.375 0.765625 2.109375q0.703125 0.71875 1.734375 0.71875q0.78125 0 1.328125 -0.40625q0.546875 -0.40625 0.859375 -1.296875zm-4.609375 -2.28125l4.625 0q-0.09375 -1.046875 -0.53125 -1.5625q-0.671875 -0.8125 -1.734375 -0.8125q-0.96875 0 -1.640625 0.65625q-0.65625 0.640625 -0.71875 1.71875zm7.8203125 4.953125l0 -8.296875l1.265625 0l0 1.25q0.484375 -0.875 0.890625 -1.15625q0.40625 -0.28125 0.90625 -0.28125q0.703125 0 1.4375 0.453125l-0.484375 1.296875q-0.515625 -0.296875 -1.03125 -0.296875q-0.453125 0 -0.828125 0.28125q-0.359375 0.265625 -0.515625 0.765625q-0.234375 0.75 -0.234375 1.640625l0 4.34375l-1.40625 0z" fill-rule="nonzero"/><path fill="#000000" fill-opacity="0.0" d="m547.6039 128.90549l122.04724 0l0 28.629913l-122.04724 0z" fill-rule="evenodd"/><path fill="#9fc5e8" d="m565.3539 137.62732l1.515625 0l0 6.609375q0 1.734375 -0.390625 2.75q-0.390625 1.015625 -1.40625 1.65625q-1.015625 0.640625 -2.671875 0.640625q-1.609375 0 -2.640625 -0.5625q-1.015625 -0.5625 -1.453125 -1.609375q-0.4375 -1.046875 -0.4375 -2.875l0 -6.609375l1.515625 0l0 6.609375q0 1.484375 0.265625 2.203125q0.28125 0.703125 0.953125 1.09375q0.6875 0.375 1.65625 0.375q1.671875 0 2.375 -0.75q0.71875 -0.765625 0.71875 -2.921875l0 -6.609375zm3.8671875 11.453125l0 -8.296875l1.265625 0l0 1.171875q0.90625 -1.359375 2.640625 -1.359375q0.75 0 1.375 0.265625q0.625 0.265625 0.9375 0.703125q0.3125 0.4375 0.4375 1.046875q0.078125 0.390625 0.078125 1.359375l0 5.109375l-1.40625 0l0 -5.046875q0 -0.859375 -0.171875 -1.28125q-0.15625 -0.4375 -0.578125 -0.6875q-0.40625 -0.25 -0.96875 -0.25q-0.90625 0 -1.5625 0.578125q-0.640625 0.5625 -0.640625 2.15625l0 4.53125l-1.40625 0zm14.2734375 0l0 -1.046875q-0.78125 1.234375 -2.3125 1.234375q-1.0 0 -1.828125 -0.546875q-0.828125 -0.546875 -1.296875 -1.53125q-0.453125 -0.984375 -0.453125 -2.25q0 -1.25 0.40625 -2.25q0.421875 -1.015625 1.25 -1.546875q0.828125 -0.546875 1.859375 -0.546875q0.75 0 1.328125 0.3125q0.59375 0.3125 0.953125 0.828125l0 -4.109375l1.40625 0l0 11.453125l-1.3125 0zm-4.4375 -4.140625q0 1.59375 0.671875 2.390625q0.671875 0.78125 1.578125 0.78125q0.921875 0 1.5625 -0.75q0.65625 -0.765625 0.65625 -2.3125q0 -1.703125 -0.65625 -2.5q-0.65625 -0.796875 -1.625 -0.796875q-0.9375 0 -1.5625 0.765625q-0.625 0.765625 -0.625 2.421875zm13.6328125 1.46875l1.453125 0.171875q-0.34375 1.28125 -1.28125 1.984375q-0.921875 0.703125 -2.359375 0.703125q-1.828125 0 -2.890625 -1.125q-1.0625 -1.125 -1.0625 -3.140625q0 -2.09375 1.078125 -3.25q1.078125 -1.15625 2.796875 -1.15625q1.65625 0 2.703125 1.140625q1.0625 1.125 1.0625 3.171875q0 0.125 0 0.375l-6.1875 0q0.078125 1.375 0.765625 2.109375q0.703125 0.71875 1.734375 0.71875q0.78125 0 1.328125 -0.40625q0.546875 -0.40625 0.859375 -1.296875zm-4.609375 -2.28125l4.625 0q-0.09375 -1.046875 -0.53125 -1.5625q-0.671875 -0.8125 -1.734375 -0.8125q-0.96875 0 -1.640625 0.65625q-0.65625 0.640625 -0.71875 1.71875zm8.1640625 4.953125l0 -7.203125l-1.234375 0l0 -1.09375l1.234375 0l0 -0.890625q0 -0.828125 0.15625 -1.234375q0.203125 -0.546875 0.703125 -0.890625q0.515625 -0.34375 1.4375 -0.34375q0.59375 0 1.3125 0.140625l-0.203125 1.234375q-0.4375 -0.078125 -0.828125 -0.078125q-0.640625 0 -0.90625 0.28125q-0.265625 0.265625 -0.265625 1.015625l0 0.765625l1.609375 0l0 1.09375l-1.609375 0l0 7.203125l-1.40625 0zm4.1171875 -9.84375l0 -1.609375l1.40625 0l0 1.609375l-1.40625 0zm0 9.84375l0 -8.296875l1.40625 0l0 8.296875l-1.40625 0zm3.5546875 0l0 -8.296875l1.265625 0l0 1.171875q0.90625 -1.359375 2.640625 -1.359375q0.75 0 1.375 0.265625q0.625 0.265625 0.9375 0.703125q0.3125 0.4375 0.4375 1.046875q0.078125 0.390625 0.078125 1.359375l0 5.109375l-1.40625 0l0 -5.046875q0 -0.859375 -0.171875 -1.28125q-0.15625 -0.4375 -0.578125 -0.6875q-0.40625 -0.25 -0.96875 -0.25q-0.90625 0 -1.5625 0.578125q-0.640625 0.5625 -0.640625 2.15625l0 4.53125l-1.40625 0zm14.5703125 -2.671875l1.453125 0.171875q-0.34375 1.28125 -1.28125 1.984375q-0.921875 0.703125 -2.359375 0.703125q-1.828125 0 -2.890625 -1.125q-1.0625 -1.125 -1.0625 -3.140625q0 -2.09375 1.078125 -3.25q1.078125 -1.15625 2.796875 -1.15625q1.65625 0 2.703125 1.140625q1.0625 1.125 1.0625 3.171875q0 0.125 0 0.375l-6.1875 0q0.078125 1.375 0.765625 2.109375q0.703125 0.71875 1.734375 0.71875q0.78125 0 1.328125 -0.40625q0.546875 -0.40625 0.859375 -1.296875zm-4.609375 -2.28125l4.625 0q-0.09375 -1.046875 -0.53125 -1.5625q-0.671875 -0.8125 -1.734375 -0.8125q-0.96875 0 -1.640625 0.65625q-0.65625 0.640625 -0.71875 1.71875zm13.2109375 4.953125l0 -1.046875q-0.78125 1.234375 -2.3125 1.234375q-1.0 0 -1.828125 -0.546875q-0.828125 -0.546875 -1.296875 -1.53125q-0.453125 -0.984375 -0.453125 -2.25q0 -1.25 0.40625 -2.25q0.421875 -1.015625 1.25 -1.546875q0.828125 -0.546875 1.859375 -0.546875q0.75 0 1.328125 0.3125q0.59375 0.3125 0.953125 0.828125l0 -4.109375l1.40625 0l0 11.453125l-1.3125 0zm-4.4375 -4.140625q0 1.59375 0.671875 2.390625q0.671875 0.78125 1.578125 0.78125q0.921875 0 1.5625 -0.75q0.65625 -0.765625 0.65625 -2.3125q0 -1.703125 -0.65625 -2.5q-0.65625 -0.796875 -1.625 -0.796875q-0.9375 0 -1.5625 0.765625q-0.625 0.765625 -0.625 2.421875z" fill-rule="nonzero"/><path fill="#000000" fill-opacity="0.0" d="m244.006 471.39l122.047226 0l0 30.551178l-122.047226 0z" fill-rule="evenodd"/><path fill="#1155cc" d="m254.22475 492.5256l0 -11.453125l1.5625 0l6.0156097 8.984375l0 -8.984375l1.453125 0l0 11.453125l-1.5625 0l-6.0156097 -9.0l0 9.0l-1.453125 0zm17.070297 -2.671875l1.453125 0.171875q-0.34375 1.28125 -1.28125 1.984375q-0.921875 0.703125 -2.359375 0.703125q-1.828125 0 -2.890625 -1.125q-1.0625 -1.125 -1.0625 -3.140625q0 -2.09375 1.078125 -3.25q1.078125 -1.15625 2.796875 -1.15625q1.65625 0 2.703125 1.140625q1.0625 1.125 1.0625 3.171875q0 0.125 0 0.375l-6.1875 0q0.078125 1.375 0.765625 2.109375q0.703125 0.71875 1.734375 0.71875q0.78125 0 1.328125 -0.40625q0.546875 -0.40625 0.859375 -1.296875zm-4.609375 -2.28125l4.625 0q-0.09375 -1.046875 -0.53125 -1.5625q-0.671875 -0.8125 -1.734375 -0.8125q-0.96875 0 -1.640625 0.65625q-0.65625 0.640625 -0.71875 1.71875zm7.5703125 5.640625l1.375 0.203125q0.078125 0.640625 0.46875 0.921875q0.53125 0.390625 1.4375 0.390625q0.96875 0 1.5 -0.390625q0.53125 -0.390625 0.71875 -1.09375q0.109375 -0.421875 0.109375 -1.8125q-0.921875 1.09375 -2.296875 1.09375q-1.71875 0 -2.65625 -1.234375q-0.9375 -1.234375 -0.9375 -2.96875q0 -1.1875 0.421875 -2.1875q0.4375 -1.0 1.25 -1.546875q0.828125 -0.546875 1.921875 -0.546875q1.46875 0 2.421875 1.1875l0 -1.0l1.296875 0l0 7.171875q0 1.9375 -0.390625 2.75q-0.390625 0.8125 -1.25 1.28125q-0.859375 0.46875 -2.109375 0.46875q-1.484375 0 -2.40625 -0.671875q-0.90625 -0.671875 -0.875 -2.015625zm1.171875 -4.984375q0 1.625 0.640625 2.375q0.65625 0.75 1.625 0.75q0.96875 0 1.625 -0.734375q0.65625 -0.75 0.65625 -2.34375q0 -1.53125 -0.671875 -2.296875q-0.671875 -0.78125 -1.625 -0.78125q-0.9375 0 -1.59375 0.765625q-0.65625 0.765625 -0.65625 2.265625zm13.3984375 3.265625q-0.78125 0.671875 -1.5 0.953125q-0.71875 0.265625 -1.546875 0.265625q-1.375 0 -2.109375 -0.671875q-0.734375 -0.671875 -0.734375 -1.703125q0 -0.609375 0.28125 -1.109375q0.28125 -0.515625 0.71875 -0.8125q0.453125 -0.3125 1.015625 -0.46875q0.421875 -0.109375 1.25 -0.203125q1.703125 -0.203125 2.515625 -0.484375q0 -0.296875 0 -0.375q0 -0.859375 -0.390625 -1.203125q-0.546875 -0.484375 -1.609375 -0.484375q-0.984375 0 -1.46875 0.359375q-0.46875 0.34375 -0.6875 1.21875l-1.375 -0.1875q0.1875 -0.875 0.609375 -1.421875q0.4375 -0.546875 1.25 -0.828125q0.8125 -0.296875 1.875 -0.296875q1.0625 0 1.71875 0.25q0.671875 0.25 0.984375 0.625q0.3125 0.375 0.4375 0.953125q0.078125 0.359375 0.078125 1.296875l0 1.875q0 1.96875 0.078125 2.484375q0.09375 0.515625 0.359375 1.0l-1.46875 0q-0.21875 -0.4375 -0.28125 -1.03125zm-0.109375 -3.140625q-0.765625 0.3125 -2.296875 0.53125q-0.875 0.125 -1.234375 0.28125q-0.359375 0.15625 -0.5625 0.46875q-0.1875 0.296875 -0.1875 0.65625q0 0.5625 0.421875 0.9375q0.4375 0.375 1.25 0.375q0.8125 0 1.4375 -0.34375q0.640625 -0.359375 0.9375 -0.984375q0.234375 -0.46875 0.234375 -1.40625l0 -0.515625zm6.6640625 2.90625l0.203125 1.25q-0.59375 0.125 -1.0625 0.125q-0.765625 0 -1.1875 -0.234375q-0.421875 -0.25 -0.59375 -0.640625q-0.171875 -0.40625 -0.171875 -1.671875l0 -4.765625l-1.03125 0l0 -1.09375l1.03125 0l0 -2.0625l1.40625 -0.84375l0 2.90625l1.40625 0l0 1.09375l-1.40625 0l0 4.84375q0 0.609375 0.0625 0.78125q0.078125 0.171875 0.25 0.28125q0.171875 0.09375 0.484375 0.09375q0.234375 0 0.609375 -0.0625zm1.3828125 -8.578125l0 -1.609375l1.40625 0l0 1.609375l-1.40625 0zm0 9.84375l0 -8.296875l1.40625 0l0 8.296875l-1.40625 0zm5.8515625 0l-3.15625 -8.296875l1.484375 0l1.78125 4.96875q0.296875 0.796875 0.53125 1.671875q0.1875 -0.65625 0.53125 -1.578125l1.84375 -5.0625l1.4375 0l-3.140625 8.296875l-1.3125 0zm11.375 -2.671875l1.453125 0.171875q-0.34375 1.28125 -1.28125 1.984375q-0.921875 0.703125 -2.359375 0.703125q-1.828125 0 -2.890625 -1.125q-1.0625 -1.125 -1.0625 -3.140625q0 -2.09375 1.078125 -3.25q1.078125 -1.15625 2.796875 -1.15625q1.65625 0 2.703125 1.140625q1.0625 1.125 1.0625 3.171875q0 0.125 0 0.375l-6.1875 0q0.078125 1.375 0.765625 2.109375q0.703125 0.71875 1.734375 0.71875q0.78125 0 1.328125 -0.40625q0.546875 -0.40625 0.859375 -1.296875zm-4.609375 -2.28125l4.625 0q-0.09375 -1.046875 -0.53125 -1.5625q-0.671875 -0.8125 -1.734375 -0.8125q-0.96875 0 -1.640625 0.65625q-0.65625 0.640625 -0.71875 1.71875zm7.2734375 2.46875l1.390625 -0.21875q0.109375 0.84375 0.640625 1.296875q0.546875 0.4375 1.5 0.4375q0.96875 0 1.4375 -0.390625q0.46875 -0.40625 0.46875 -0.9375q0 -0.46875 -0.40625 -0.75q-0.296875 -0.1875 -1.4375 -0.46875q-1.546875 -0.390625 -2.15625 -0.671875q-0.59375 -0.296875 -0.90625 -0.796875q-0.296875 -0.5 -0.296875 -1.109375q0 -0.5625 0.25 -1.03125q0.25 -0.46875 0.6875 -0.78125q0.328125 -0.25 0.890625 -0.40625q0.578125 -0.171875 1.21875 -0.171875q0.984375 0 1.71875 0.28125q0.734375 0.28125 1.078125 0.765625q0.359375 0.46875 0.5 1.28125l-1.375 0.1875q-0.09375 -0.640625 -0.546875 -1.0q-0.453125 -0.359375 -1.265625 -0.359375q-0.96875 0 -1.390625 0.328125q-0.40625 0.3125 -0.40625 0.734375q0 0.28125 0.171875 0.5q0.171875 0.21875 0.53125 0.375q0.21875 0.078125 1.25 0.359375q1.484375 0.390625 2.078125 0.65625q0.59375 0.25 0.921875 0.734375q0.34375 0.484375 0.34375 1.203125q0 0.703125 -0.421875 1.328125q-0.40625 0.609375 -1.1875 0.953125q-0.765625 0.34375 -1.734375 0.34375q-1.625 0 -2.46875 -0.671875q-0.84375 -0.671875 -1.078125 -2.0z" fill-rule="nonzero"/><path fill="#3c78d8" d="m244.00754 477.27606l-22.834656 0l0 17.039398l22.834656 0z" fill-rule="evenodd"/><path fill="#ff0000" d="m398.53857 477.27606l-22.834656 0l0 17.039398l22.834656 0z" fill-rule="evenodd"/><path fill="#000000" fill-opacity="0.0" d="m398.5366 472.34296l101.85828 0l0 28.629913l-101.85828 0z" fill-rule="evenodd"/><path fill="#ff0000" d="m408.77097 492.5179l0 -11.453125l4.328125 0q1.140625 0 1.734375 0.109375q0.84375 0.140625 1.40625 0.53125q0.578125 0.390625 0.921875 1.109375q0.359375 0.703125 0.359375 1.5625q0 1.453125 -0.9375 2.46875q-0.921875 1.015625 -3.359375 1.015625l-2.9375 0l0 4.65625l-1.515625 0zm1.515625 -6.015625l2.96875 0q1.46875 0 2.078125 -0.546875q0.625 -0.546875 0.625 -1.53125q0 -0.71875 -0.375 -1.234375q-0.359375 -0.515625 -0.953125 -0.671875q-0.375 -0.109375 -1.40625 -0.109375l-2.9375 0l0 4.09375zm8.453125 1.859375q0 -2.296875 1.28125 -3.40625q1.078125 -0.921875 2.609375 -0.921875q1.71875 0 2.796875 1.125q1.09375 1.109375 1.09375 3.09375q0 1.59375 -0.484375 2.515625q-0.484375 0.921875 -1.40625 1.4375q-0.90625 0.5 -2.0 0.5q-1.734375 0 -2.8125 -1.109375q-1.078125 -1.125 -1.078125 -3.234375zm1.453125 0q0 1.59375 0.6875 2.390625q0.703125 0.796875 1.75 0.796875q1.046875 0 1.734375 -0.796875q0.703125 -0.796875 0.703125 -2.4375q0 -1.53125 -0.703125 -2.328125q-0.6875 -0.796875 -1.734375 -0.796875q-1.046875 0 -1.75 0.796875q-0.6875 0.78125 -0.6875 2.375zm7.4140625 1.671875l1.390625 -0.21875q0.109375 0.84375 0.640625 1.296875q0.546875 0.4375 1.5 0.4375q0.96875 0 1.4375 -0.390625q0.46875 -0.40625 0.46875 -0.9375q0 -0.46875 -0.40625 -0.75q-0.296875 -0.1875 -1.4375 -0.46875q-1.546875 -0.390625 -2.15625 -0.671875q-0.59375 -0.296875 -0.90625 -0.796875q-0.296875 -0.5 -0.296875 -1.109375q0 -0.5625 0.25 -1.03125q0.25 -0.46875 0.6875 -0.78125q0.328125 -0.25 0.890625 -0.40625q0.578125 -0.171875 1.21875 -0.171875q0.984375 0 1.71875 0.28125q0.734375 0.28125 1.078125 0.765625q0.359375 0.46875 0.5 1.28125l-1.375 0.1875q-0.09375 -0.640625 -0.546875 -1.0q-0.453125 -0.359375 -1.265625 -0.359375q-0.96875 0 -1.390625 0.328125q-0.40625 0.3125 -0.40625 0.734375q0 0.28125 0.171875 0.5q0.171875 0.21875 0.53125 0.375q0.21875 0.078125 1.25 0.359375q1.484375 0.390625 2.078125 0.65625q0.59375 0.25 0.921875 0.734375q0.34375 0.484375 0.34375 1.203125q0 0.703125 -0.421875 1.328125q-0.40625 0.609375 -1.1875 0.953125q-0.765625 0.34375 -1.734375 0.34375q-1.625 0 -2.46875 -0.671875q-0.84375 -0.671875 -1.078125 -2.0zm8.5625 -7.359375l0 -1.609375l1.40625 0l0 1.609375l-1.40625 0zm0 9.84375l0 -8.296875l1.40625 0l0 8.296875l-1.40625 0zm6.6171875 -1.265625l0.203125 1.25q-0.59375 0.125 -1.0625 0.125q-0.765625 0 -1.1875 -0.234375q-0.421875 -0.25 -0.59375 -0.640625q-0.171875 -0.40625 -0.171875 -1.671875l0 -4.765625l-1.03125 0l0 -1.09375l1.03125 0l0 -2.0625l1.40625 -0.84375l0 2.90625l1.40625 0l0 1.09375l-1.40625 0l0 4.84375q0 0.609375 0.0625 0.78125q0.078125 0.171875 0.25 0.28125q0.171875 0.09375 0.484375 0.09375q0.234375 0 0.609375 -0.0625zm1.3828125 -8.578125l0 -1.609375l1.40625 0l0 1.609375l-1.40625 0zm0 9.84375l0 -8.296875l1.40625 0l0 8.296875l-1.40625 0zm5.8515625 0l-3.15625 -8.296875l1.484375 0l1.78125 4.96875q0.296875 0.796875 0.53125 1.671875q0.1875 -0.65625 0.53125 -1.578125l1.84375 -5.0625l1.4375 0l-3.140625 8.296875l-1.3125 0zm11.375 -2.671875l1.453125 0.171875q-0.34375 1.28125 -1.28125 1.984375q-0.921875 0.703125 -2.359375 0.703125q-1.828125 0 -2.890625 -1.125q-1.0625 -1.125 -1.0625 -3.140625q0 -2.09375 1.078125 -3.25q1.078125 -1.15625 2.796875 -1.15625q1.65625 0 2.703125 1.140625q1.0625 1.125 1.0625 3.171875q0 0.125 0 0.375l-6.1875 0q0.078125 1.375 0.765625 2.109375q0.703125 0.71875 1.734375 0.71875q0.78125 0 1.328125 -0.40625q0.546875 -0.40625 0.859375 -1.296875zm-4.609375 -2.28125l4.625 0q-0.09375 -1.046875 -0.53125 -1.5625q-0.671875 -0.8125 -1.734375 -0.8125q-0.96875 0 -1.640625 0.65625q-0.65625 0.640625 -0.71875 1.71875zm7.2734375 2.46875l1.390625 -0.21875q0.109375 0.84375 0.640625 1.296875q0.546875 0.4375 1.5 0.4375q0.96875 0 1.4375 -0.390625q0.46875 -0.40625 0.46875 -0.9375q0 -0.46875 -0.40625 -0.75q-0.296875 -0.1875 -1.4375 -0.46875q-1.546875 -0.390625 -2.15625 -0.671875q-0.59375 -0.296875 -0.90625 -0.796875q-0.296875 -0.5 -0.296875 -1.109375q0 -0.5625 0.25 -1.03125q0.25 -0.46875 0.6875 -0.78125q0.328125 -0.25 0.890625 -0.40625q0.578125 -0.171875 1.21875 -0.171875q0.984375 0 1.71875 0.28125q0.734375 0.28125 1.078125 0.765625q0.359375 0.46875 0.5 1.28125l-1.375 0.1875q-0.09375 -0.640625 -0.546875 -1.0q-0.453125 -0.359375 -1.265625 -0.359375q-0.96875 0 -1.390625 0.328125q-0.40625 0.3125 -0.40625 0.734375q0 0.28125 0.171875 0.5q0.171875 0.21875 0.53125 0.375q0.21875 0.078125 1.25 0.359375q1.484375 0.390625 2.078125 0.65625q0.59375 0.25 0.921875 0.734375q0.34375 0.484375 0.34375 1.203125q0 0.703125 -0.421875 1.328125q-0.40625 0.609375 -1.1875 0.953125q-0.765625 0.34375 -1.734375 0.34375q-1.625 0 -2.46875 -0.671875q-0.84375 -0.671875 -1.078125 -2.0z" fill-rule="nonzero"/><path fill="#000000" fill-opacity="0.0" d="m763.7606 394.3638l135.37006 0l0 50.015747l-135.37006 0z" fill-rule="evenodd"/><path fill="#000000" d="m779.3544 420.7317l0 -1.34375l4.859375 0l0 4.25q-1.125 0.890625 -2.3125 1.34375q-1.1875 0.453125 -2.4375 0.453125q-1.6875 0 -3.0625 -0.71875q-1.375 -0.734375 -2.078125 -2.09375q-0.703125 -1.375 -0.703125 -3.0625q0 -1.671875 0.6875 -3.125q0.703125 -1.453125 2.015625 -2.15625q1.3125 -0.703125 3.03125 -0.703125q1.234375 0 2.234375 0.40625q1.015625 0.40625 1.578125 1.125q0.578125 0.71875 0.875 1.875l-1.375 0.375q-0.25 -0.875 -0.640625 -1.375q-0.375 -0.5 -1.09375 -0.796875q-0.703125 -0.3125 -1.578125 -0.3125q-1.03125 0 -1.796875 0.328125q-0.75 0.3125 -1.21875 0.828125q-0.46875 0.515625 -0.71875 1.125q-0.4375 1.0625 -0.4375 2.3125q0 1.53125 0.515625 2.5625q0.53125 1.03125 1.53125 1.53125q1.015625 0.5 2.15625 0.5q0.984375 0 1.921875 -0.375q0.9375 -0.390625 1.421875 -0.8125l0 -2.140625l-3.375 0zm6.8984375 4.5l0 -8.296875l1.265625 0l0 1.25q0.484375 -0.875 0.890625 -1.15625q0.40625 -0.28125 0.90625 -0.28125q0.703125 0 1.4375 0.453125l-0.484375 1.296875q-0.515625 -0.296875 -1.03125 -0.296875q-0.453125 0 -0.828125 0.28125q-0.359375 0.265625 -0.515625 0.765625q-0.234375 0.75 -0.234375 1.640625l0 4.34375l-1.40625 0zm4.8125 -4.15625q0 -2.296875 1.28125 -3.40625q1.078125 -0.921875 2.609375 -0.921875q1.71875 0 2.796875 1.125q1.09375 1.109375 1.09375 3.09375q0 1.59375 -0.484375 2.515625q-0.484375 0.921875 -1.40625 1.4375q-0.90625 0.5 -2.0 0.5q-1.734375 0 -2.8125 -1.109375q-1.078125 -1.125 -1.078125 -3.234375zm1.453125 0q0 1.59375 0.6875 2.390625q0.703125 0.796875 1.75 0.796875q1.046875 0 1.734375 -0.796875q0.703125 -0.796875 0.703125 -2.4375q0 -1.53125 -0.703125 -2.328125q-0.6875 -0.796875 -1.734375 -0.796875q-1.046875 0 -1.75 0.796875q-0.6875 0.78125 -0.6875 2.375zm13.4140625 4.15625l0 -1.21875q-0.96875 1.40625 -2.640625 1.40625q-0.734375 0 -1.375 -0.28125q-0.625 -0.28125 -0.9375 -0.703125q-0.3125 -0.4375 -0.4375 -1.046875q-0.078125 -0.421875 -0.078125 -1.3125l0 -5.140625l1.40625 0l0 4.59375q0 1.109375 0.078125 1.484375q0.140625 0.5625 0.5625 0.875q0.4375 0.3125 1.0625 0.3125q0.640625 0 1.1875 -0.3125q0.5625 -0.328125 0.78125 -0.890625q0.234375 -0.5625 0.234375 -1.625l0 -4.4375l1.40625 0l0 8.296875l-1.25 0zm3.4609375 0l0 -8.296875l1.265625 0l0 1.171875q0.90625 -1.359375 2.640625 -1.359375q0.75 0 1.375 0.265625q0.625 0.265625 0.9375 0.703125q0.3125 0.4375 0.4375 1.046875q0.078125 0.390625 0.078125 1.359375l0 5.109375l-1.40625 0l0 -5.046875q0 -0.859375 -0.171875 -1.28125q-0.15625 -0.4375 -0.578125 -0.6875q-0.40625 -0.25 -0.96875 -0.25q-0.90625 0 -1.5625 0.578125q-0.640625 0.5625 -0.640625 2.15625l0 4.53125l-1.40625 0zm14.2734375 0l0 -1.046875q-0.78125 1.234375 -2.3125 1.234375q-1.0 0 -1.828125 -0.546875q-0.828125 -0.546875 -1.296875 -1.53125q-0.453125 -0.984375 -0.453125 -2.25q0 -1.25 0.40625 -2.25q0.421875 -1.015625 1.25 -1.546875q0.828125 -0.546875 1.859375 -0.546875q0.75 0 1.328125 0.3125q0.59375 0.3125 0.953125 0.828125l0 -4.109375l1.40625 0l0 11.453125l-1.3125 0zm-4.4375 -4.140625q0 1.59375 0.671875 2.390625q0.671875 0.78125 1.578125 0.78125q0.921875 0 1.5625 -0.75q0.65625 -0.765625 0.65625 -2.3125q0 -1.703125 -0.65625 -2.5q-0.65625 -0.796875 -1.625 -0.796875q-0.9375 0 -1.5625 0.765625q-0.625 0.765625 -0.625 2.421875zm15.46875 2.875l0.203125 1.25q-0.59375 0.125 -1.0625 0.125q-0.765625 0 -1.1875 -0.234375q-0.421875 -0.25 -0.59375 -0.640625q-0.171875 -0.40625 -0.171875 -1.671875l0 -4.765625l-1.03125 0l0 -1.09375l1.03125 0l0 -2.0625l1.40625 -0.84375l0 2.90625l1.40625 0l0 1.09375l-1.40625 0l0 4.84375q0 0.609375 0.0625 0.78125q0.078125 0.171875 0.25 0.28125q0.171875 0.09375 0.484375 0.09375q0.234375 0 0.609375 -0.0625zm1.3671875 1.265625l0 -8.296875l1.265625 0l0 1.25q0.484375 -0.875 0.890625 -1.15625q0.40625 -0.28125 0.90625 -0.28125q0.703125 0 1.4375 0.453125l-0.484375 1.296875q-0.515625 -0.296875 -1.03125 -0.296875q-0.453125 0 -0.828125 0.28125q-0.359375 0.265625 -0.515625 0.765625q-0.234375 0.75 -0.234375 1.640625l0 4.34375l-1.40625 0zm10.78125 0l0 -1.21875q-0.96875 1.40625 -2.640625 1.40625q-0.734375 0 -1.375 -0.28125q-0.625 -0.28125 -0.9375 -0.703125q-0.3125 -0.4375 -0.4375 -1.046875q-0.078125 -0.421875 -0.078125 -1.3125l0 -5.140625l1.40625 0l0 4.59375q0 1.109375 0.078125 1.484375q0.140625 0.5625 0.5625 0.875q0.4375 0.3125 1.0625 0.3125q0.640625 0 1.1875 -0.3125q0.5625 -0.328125 0.78125 -0.890625q0.234375 -0.5625 0.234375 -1.625l0 -4.4375l1.40625 0l0 8.296875l-1.25 0zm6.5234375 -1.265625l0.203125 1.25q-0.59375 0.125 -1.0625 0.125q-0.765625 0 -1.1875 -0.234375q-0.421875 -0.25 -0.59375 -0.640625q-0.171875 -0.40625 -0.171875 -1.671875l0 -4.765625l-1.03125 0l0 -1.09375l1.03125 0l0 -2.0625l1.40625 -0.84375l0 2.90625l1.40625 0l0 1.09375l-1.40625 0l0 4.84375q0 0.609375 0.0625 0.78125q0.078125 0.171875 0.25 0.28125q0.171875 0.09375 0.484375 0.09375q0.234375 0 0.609375 -0.0625zm1.3828125 1.265625l0 -11.453125l1.40625 0l0 4.109375q0.984375 -1.140625 2.484375 -1.140625q0.921875 0 1.59375 0.359375q0.6875 0.359375 0.96875 1.0q0.296875 0.640625 0.296875 1.859375l0 5.265625l-1.40625 0l0 -5.265625q0 -1.046875 -0.453125 -1.53125q-0.453125 -0.484375 -1.296875 -0.484375q-0.625 0 -1.171875 0.328125q-0.546875 0.328125 -0.78125 0.890625q-0.234375 0.546875 -0.234375 1.515625l0 4.546875l-1.40625 0z" fill-rule="nonzero"/><path fill="#ff0000" d="m557.6644 398.95572l71.39227 0l0 11.168121l-71.39227 0z" fill-rule="evenodd"/><path fill="#3c78d8" d="m158.41595 398.9541l399.2707 0l0 11.168152l-399.2707 0z" fill-rule="evenodd"/><path fill="#3c78d8" d="m629.08844 398.9541l74.59412 0l0 11.168152l-74.59412 0z" fill-rule="evenodd"/><path fill="#3c78d8" d="m261.18765 428.5786l193.25085 0l0 11.168121l-193.25085 0z" fill-rule="evenodd"/><path fill="#ff0000" d="m557.6803 428.5786l71.39227 0l0 11.168121l-71.39227 0z" fill-rule="evenodd"/><path fill="#3c78d8" d="m502.90393 428.579l17.609863 0l0 11.168152l-17.609863 0z" fill-rule="evenodd"/><path fill="#3c78d8" d="m261.20364 328.7399l193.25983 0l0 11.181091l-193.25983 0z" fill-rule="evenodd"/><path fill="#cfe2f3" d="m158.42754 328.7399l102.77165 0l0 11.181091l-102.77165 0z" fill-rule="evenodd"/><path fill="#cfe2f3" d="m454.46274 328.7399l48.15747 0l0 11.181091l-48.15747 0z" fill-rule="evenodd"/><path fill="#cfe2f3" d="m629.1202 328.7399l74.6142 0l0 11.181091l-74.6142 0z" fill-rule="evenodd"/><path fill="#ff0000" d="m557.709 328.7399l71.40155 0l0 11.181091l-71.40155 0z" fill-rule="evenodd"/><path fill="#3c78d8" d="m502.59964 328.81613l18.64566 0l0 11.181091l-18.64566 0z" fill-rule="evenodd"/><path fill="#cfe2f3" d="m521.48035 328.81613l36.252014 0l0 11.181091l-36.252014 0z" fill-rule="evenodd"/><path fill="#000000" fill-opacity="0.0" d="m629.1043 179.53596l0 249.07088" fill-rule="evenodd"/><path stroke="#999999" stroke-width="1.0" stroke-linejoin="round" stroke-linecap="butt" stroke-dasharray="4.0,3.0" d="m629.1043 179.53596l0 249.07088" fill-rule="evenodd"/><path fill="#000000" fill-opacity="0.0" d="m557.7089 179.53596l0 250.11024" fill-rule="evenodd"/><path stroke="#999999" stroke-width="1.0" stroke-linejoin="round" stroke-linecap="butt" stroke-dasharray="4.0,3.0" d="m557.7089 179.53596l0 250.11024" fill-rule="evenodd"/><path fill="#000000" fill-opacity="0.0" d="m32.72441 46.721786l558.9921 0l0 60.125984l-558.9921 0z" fill-rule="evenodd"/><path fill="#000000" d="m44.66191 91.56178l0 -26.71875l11.84375 0q3.578125 0 5.4375 0.71875q1.859375 0.71875 2.96875 2.546875q1.109375 1.8125 1.109375 4.03125q0 2.828125 -1.84375 4.78125q-1.84375 1.953125 -5.6875 2.484375q1.40625 0.671875 2.140625 1.328125q1.546875 1.421875 2.921875 3.5625l4.65625 7.265625l-4.453125 0l-3.53125 -5.5625q-1.546875 -2.40625 -2.546875 -3.671875q-1.0 -1.28125 -1.796875 -1.78125q-0.796875 -0.515625 -1.609375 -0.71875q-0.609375 -0.125 -1.96875 -0.125l-4.109375 0l0 11.859375l-3.53125 0zm3.53125 -14.921875l7.609375 0q2.421875 0 3.78125 -0.5q1.375 -0.515625 2.078125 -1.609375q0.71875 -1.109375 0.71875 -2.390625q0 -1.90625 -1.375 -3.125q-1.375 -1.21875 -4.359375 -1.21875l-8.453125 0l0 8.84375zm36.207184 8.6875l3.375 0.421875q-0.796875 2.96875 -2.96875 4.609375q-2.15625 1.640625 -5.53125 1.640625q-4.25 0 -6.75 -2.609375q-2.484375 -2.625 -2.484375 -7.34375q0 -4.890625 2.515625 -7.578125q2.515625 -2.703125 6.53125 -2.703125q3.890625 0 6.34375 2.640625q2.453125 2.640625 2.453125 7.4375q0 0.296875 -0.015625 0.875l-14.4375 0q0.1875 3.1875 1.8125 4.890625q1.625 1.6875 4.046875 1.6875q1.796875 0 3.078125 -0.9375q1.28125 -0.953125 2.03125 -3.03125zm-10.78125 -5.296875l10.8125 0q-0.21875 -2.453125 -1.234375 -3.671875q-1.578125 -1.890625 -4.078125 -1.890625q-2.25 0 -3.796875 1.515625q-1.53125 1.5 -1.703125 4.046875zm16.963257 5.75l3.25 -0.5q0.28125 1.9375 1.515625 2.984375q1.25 1.03125 3.5 1.03125q2.265625 0 3.359375 -0.90625q1.09375 -0.921875 1.09375 -2.171875q0 -1.109375 -0.96875 -1.75q-0.671875 -0.4375 -3.359375 -1.109375q-3.609375 -0.90625 -5.0 -1.5625q-1.390625 -0.671875 -2.125 -1.84375q-0.71875 -1.1875 -0.71875 -2.609375q0 -1.296875 0.59375 -2.390625q0.59375 -1.109375 1.625 -1.84375q0.765625 -0.5625 2.078125 -0.953125q1.328125 -0.390625 2.84375 -0.390625q2.265625 0 3.984375 0.65625q1.734375 0.65625 2.546875 1.78125q0.828125 1.125 1.140625 3.0l-3.21875 0.4375q-0.21875 -1.5 -1.265625 -2.328125q-1.046875 -0.84375 -2.953125 -0.84375q-2.265625 0 -3.234375 0.75q-0.96875 0.734375 -0.96875 1.75q0 0.625 0.40625 1.140625q0.40625 0.53125 1.265625 0.875q0.484375 0.1875 2.890625 0.84375q3.484375 0.921875 4.859375 1.515625q1.375 0.59375 2.15625 1.734375q0.78125 1.125 0.78125 2.796875q0 1.640625 -0.953125 3.09375q-0.953125 1.453125 -2.765625 2.25q-1.796875 0.78125 -4.078125 0.78125q-3.765625 0 -5.75 -1.5625q-1.984375 -1.578125 -2.53125 -4.65625zm20.007812 -17.171875l0 -3.765625l3.28125 0l0 3.765625l-3.28125 0zm0 22.953125l0 -19.359375l3.28125 0l0 19.359375l-3.28125 0zm20.824371 0l0 -2.4375q-1.84375 2.875 -5.40625 2.875q-2.3125 0 -4.265625 -1.265625q-1.9375 -1.28125 -3.0 -3.5625q-1.0625 -2.296875 -1.0625 -5.265625q0 -2.90625 0.953125 -5.265625q0.96875 -2.359375 2.90625 -3.609375q1.9375 -1.265625 4.3125 -1.265625q1.75 0 3.109375 0.75q1.375 0.734375 2.234375 1.90625l0 -9.578125l3.265625 0l0 26.71875l-3.046875 0zm-10.375 -9.65625q0 3.71875 1.5625 5.5625q1.578125 1.828125 3.71875 1.828125q2.140625 0 3.640625 -1.75q1.515625 -1.765625 1.515625 -5.375q0 -3.96875 -1.53125 -5.828125q-1.53125 -1.859375 -3.78125 -1.859375q-2.1875 0 -3.65625 1.796875q-1.46875 1.78125 -1.46875 5.625zm31.260132 9.65625l0 -2.84375q-2.25 3.28125 -6.140625 3.28125q-1.703125 0 -3.203125 -0.65625q-1.484375 -0.65625 -2.203125 -1.640625q-0.71875 -1.0 -1.0 -2.4375q-0.203125 -0.96875 -0.203125 -3.0625l0 -12.0l3.28125 0l0 10.734375q0 2.578125 0.203125 3.46875q0.296875 1.296875 1.296875 2.03125q1.015625 0.734375 2.484375 0.734375q1.484375 0 2.765625 -0.75q1.296875 -0.765625 1.828125 -2.0625q0.546875 -1.296875 0.546875 -3.78125l0 -10.375l3.28125 0l0 19.359375l-2.9375 0zm21.338257 -6.234375l3.375 0.421875q-0.796875 2.96875 -2.96875 4.609375q-2.15625 1.640625 -5.53125 1.640625q-4.25 0 -6.75 -2.609375q-2.484375 -2.625 -2.484375 -7.34375q0 -4.890625 2.515625 -7.578125q2.515625 -2.703125 6.53125 -2.703125q3.890625 0 6.34375 2.640625q2.453125 2.640625 2.453125 7.4375q0 0.296875 -0.015625 0.875l-14.4375 0q0.1875 3.1875 1.8125 4.890625q1.625 1.6875 4.046875 1.6875q1.796875 0 3.078125 -0.9375q1.28125 -0.953125 2.03125 -3.03125zm-10.78125 -5.296875l10.8125 0q-0.21875 -2.453125 -1.234375 -3.671875q-1.578125 -1.890625 -4.078125 -1.890625q-2.25 0 -3.796875 1.515625q-1.53125 1.5 -1.703125 4.046875zm41.28734 4.4375l3.21875 0.421875q-0.515625 3.34375 -2.703125 5.234375q-2.171875 1.875 -5.34375 1.875q-3.984375 0 -6.40625 -2.59375q-2.40625 -2.59375 -2.40625 -7.453125q0 -3.125 1.03125 -5.46875q1.046875 -2.359375 3.171875 -3.53125q2.125 -1.1875 4.625 -1.1875q3.15625 0 5.15625 1.59375q2.0 1.59375 2.578125 4.53125l-3.203125 0.5q-0.453125 -1.953125 -1.609375 -2.9375q-1.15625 -0.984375 -2.796875 -0.984375q-2.484375 0 -4.03125 1.78125q-1.546875 1.765625 -1.546875 5.609375q0 3.90625 1.484375 5.671875q1.5 1.765625 3.90625 1.765625q1.9375 0 3.234375 -1.171875q1.296875 -1.1875 1.640625 -3.65625zm5.9609375 7.09375l0 -26.71875l3.28125 0l0 26.71875l-3.28125 0zm20.996246 -2.390625q-1.828125 1.546875 -3.515625 2.1875q-1.6875 0.640625 -3.609375 0.640625q-3.1875 0 -4.90625 -1.546875q-1.71875 -1.5625 -1.71875 -4.0q0 -1.421875 0.640625 -2.59375q0.65625 -1.171875 1.703125 -1.875q1.046875 -0.71875 2.359375 -1.078125q0.96875 -0.265625 2.921875 -0.5q3.96875 -0.46875 5.84375 -1.125q0.03125 -0.671875 0.03125 -0.859375q0 -2.0 -0.9375 -2.828125q-1.25 -1.109375 -3.734375 -1.109375q-2.3125 0 -3.421875 0.8125q-1.09375 0.8125 -1.625 2.875l-3.21875 -0.4375q0.4375 -2.0625 1.4375 -3.328125q1.015625 -1.265625 2.90625 -1.953125q1.890625 -0.6875 4.390625 -0.6875q2.484375 0 4.03125 0.59375q1.546875 0.578125 2.28125 1.46875q0.734375 0.875 1.015625 2.21875q0.171875 0.84375 0.171875 3.03125l0 4.375q0 4.578125 0.203125 5.796875q0.21875 1.203125 0.828125 2.3125l-3.421875 0q-0.515625 -1.015625 -0.65625 -2.390625zm-0.28125 -7.328125q-1.78125 0.734375 -5.359375 1.25q-2.015625 0.28125 -2.859375 0.65625q-0.828125 0.359375 -1.296875 1.0625q-0.453125 0.703125 -0.453125 1.5625q0 1.3125 0.984375 2.1875q1.0 0.875 2.921875 0.875q1.890625 0 3.359375 -0.828125q1.484375 -0.84375 2.1875 -2.28125q0.515625 -1.109375 0.515625 -3.28125l0 -1.203125zm7.088257 3.9375l3.25 -0.5q0.28125 1.9375 1.515625 2.984375q1.25 1.03125 3.5 1.03125q2.265625 0 3.359375 -0.90625q1.09375 -0.921875 1.09375 -2.171875q0 -1.109375 -0.96875 -1.75q-0.671875 -0.4375 -3.359375 -1.109375q-3.609375 -0.90625 -5.0 -1.5625q-1.390625 -0.671875 -2.125 -1.84375q-0.71875 -1.1875 -0.71875 -2.609375q0 -1.296875 0.59375 -2.390625q0.59375 -1.109375 1.625 -1.84375q0.765625 -0.5625 2.078125 -0.953125q1.328125 -0.390625 2.84375 -0.390625q2.265625 0 3.984375 0.65625q1.734375 0.65625 2.546875 1.78125q0.828125 1.125 1.140625 3.0l-3.21875 0.4375q-0.21875 -1.5 -1.265625 -2.328125q-1.046875 -0.84375 -2.953125 -0.84375q-2.265625 0 -3.234375 0.75q-0.96875 0.734375 -0.96875 1.75q0 0.625 0.40625 1.140625q0.40625 0.53125 1.265625 0.875q0.484375 0.1875 2.890625 0.84375q3.484375 0.921875 4.859375 1.515625q1.375 0.59375 2.15625 1.734375q0.78125 1.125 0.78125 2.796875q0 1.640625 -0.953125 3.09375q-0.953125 1.453125 -2.765625 2.25q-1.796875 0.78125 -4.078125 0.78125q-3.765625 0 -5.75 -1.5625q-1.984375 -1.578125 -2.53125 -4.65625zm18.664062 0l3.25 -0.5q0.28125 1.9375 1.515625 2.984375q1.25 1.03125 3.5 1.03125q2.265625 0 3.359375 -0.90625q1.09375 -0.921875 1.09375 -2.171875q0 -1.109375 -0.96875 -1.75q-0.671875 -0.4375 -3.359375 -1.109375q-3.609375 -0.90625 -5.0 -1.5625q-1.390625 -0.671875 -2.125 -1.84375q-0.71875 -1.1875 -0.71875 -2.609375q0 -1.296875 0.59375 -2.390625q0.59375 -1.109375 1.625 -1.84375q0.765625 -0.5625 2.078125 -0.953125q1.328125 -0.390625 2.84375 -0.390625q2.265625 0 3.984375 0.65625q1.734375 0.65625 2.546875 1.78125q0.828125 1.125 1.140625 3.0l-3.21875 0.4375q-0.21875 -1.5 -1.265625 -2.328125q-1.046875 -0.84375 -2.953125 -0.84375q-2.265625 0 -3.234375 0.75q-0.96875 0.734375 -0.96875 1.75q0 0.625 0.40625 1.140625q0.40625 0.53125 1.265625 0.875q0.484375 0.1875 2.890625 0.84375q3.484375 0.921875 4.859375 1.515625q1.375 0.59375 2.15625 1.734375q0.78125 1.125 0.78125 2.796875q0 1.640625 -0.953125 3.09375q-0.953125 1.453125 -2.765625 2.25q-1.796875 0.78125 -4.078125 0.78125q-3.765625 0 -5.75 -1.5625q-1.984375 -1.578125 -2.53125 -4.65625zm20.007812 -17.171875l0 -3.765625l3.28125 0l0 3.765625l-3.28125 0zm0 22.953125l0 -19.359375l3.28125 0l0 19.359375l-3.28125 0zm9.058746 0l0 -16.8125l-2.90625 0l0 -2.546875l2.90625 0l0 -2.0625q0 -1.9375 0.34375 -2.890625q0.46875 -1.28125 1.65625 -2.0625q1.203125 -0.796875 3.359375 -0.796875q1.375 0 3.0625 0.328125l-0.5 2.859375q-1.015625 -0.1875 -1.9375 -0.1875q-1.484375 0 -2.109375 0.640625q-0.625 0.640625 -0.625 2.390625l0 1.78125l3.78125 0l0 2.546875l-3.78125 0l0 16.8125l-3.25 0zm9.605316 -22.953125l0 -3.765625l3.28125 0l0 3.765625l-3.28125 0zm0 22.953125l0 -19.359375l3.28125 0l0 19.359375l-3.28125 0zm20.902496 -7.09375l3.21875 0.421875q-0.515625 3.34375 -2.703125 5.234375q-2.171875 1.875 -5.34375 1.875q-3.984375 0 -6.40625 -2.59375q-2.40625 -2.59375 -2.40625 -7.453125q0 -3.125 1.03125 -5.46875q1.046875 -2.359375 3.171875 -3.53125q2.125 -1.1875 4.625 -1.1875q3.15625 0 5.15625 1.59375q2.0 1.59375 2.578125 4.53125l-3.203125 0.5q-0.453125 -1.953125 -1.609375 -2.9375q-1.15625 -0.984375 -2.796875 -0.984375q-2.484375 0 -4.03125 1.78125q-1.546875 1.765625 -1.546875 5.609375q0 3.90625 1.484375 5.671875q1.5 1.765625 3.90625 1.765625q1.9375 0 3.234375 -1.171875q1.296875 -1.1875 1.640625 -3.65625zm18.664062 4.703125q-1.828125 1.546875 -3.515625 2.1875q-1.6875 0.640625 -3.609375 0.640625q-3.1875 0 -4.90625 -1.546875q-1.71875 -1.5625 -1.71875 -4.0q0 -1.421875 0.640625 -2.59375q0.65625 -1.171875 1.703125 -1.875q1.046875 -0.71875 2.359375 -1.078125q0.96875 -0.265625 2.921875 -0.5q3.96875 -0.46875 5.84375 -1.125q0.03125 -0.671875 0.03125 -0.859375q0 -2.0 -0.9375 -2.828125q-1.25 -1.109375 -3.734375 -1.109375q-2.3125 0 -3.421875 0.8125q-1.09375 0.8125 -1.625 2.875l-3.21875 -0.4375q0.4375 -2.0625 1.4375 -3.328125q1.015625 -1.265625 2.90625 -1.953125q1.890625 -0.6875 4.390625 -0.6875q2.484375 0 4.03125 0.59375q1.546875 0.578125 2.28125 1.46875q0.734375 0.875 1.015625 2.21875q0.171875 0.84375 0.171875 3.03125l0 4.375q0 4.578125 0.203125 5.796875q0.21875 1.203125 0.828125 2.3125l-3.421875 0q-0.515625 -1.015625 -0.65625 -2.390625zm-0.28125 -7.328125q-1.78125 0.734375 -5.359375 1.25q-2.015625 0.28125 -2.859375 0.65625q-0.828125 0.359375 -1.296875 1.0625q-0.453125 0.703125 -0.453125 1.5625q0 1.3125 0.984375 2.1875q1.0 0.875 2.921875 0.875q1.890625 0 3.359375 -0.828125q1.484375 -0.84375 2.1875 -2.28125q0.515625 -1.109375 0.515625 -3.28125l0 -1.203125zm15.572632 6.78125l0.46875 2.90625q-1.375 0.28125 -2.46875 0.28125q-1.796875 0 -2.78125 -0.5625q-0.984375 -0.5625 -1.390625 -1.484375q-0.390625 -0.921875 -0.390625 -3.875l0 -11.140625l-2.40625 0l0 -2.546875l2.40625 0l0 -4.796875l3.265625 -1.96875l0 6.765625l3.296875 0l0 2.546875l-3.296875 0l0 11.328125q0 1.40625 0.171875 1.8125q0.171875 0.390625 0.5625 0.625q0.390625 0.234375 1.125 0.234375q0.546875 0 1.4375 -0.125zm3.2303467 -20.015625l0 -3.765625l3.28125 0l0 3.765625l-3.28125 0zm0 22.953125l0 -19.359375l3.28125 0l0 19.359375l-3.28125 0zm7.0431213 -9.671875q0 -5.390625 3.0 -7.96875q2.484375 -2.15625 6.078125 -2.15625q4.0 0 6.53125 2.625q2.53125 2.609375 2.53125 7.21875q0 3.734375 -1.125 5.875q-1.109375 2.140625 -3.265625 3.328125q-2.140625 1.1875 -4.671875 1.1875q-4.0625 0 -6.578125 -2.609375q-2.5 -2.609375 -2.5 -7.5zm3.375 0q0 3.71875 1.625 5.5625q1.625 1.84375 4.078125 1.84375q2.453125 0 4.0625 -1.859375q1.625 -1.859375 1.625 -5.65625q0 -3.59375 -1.640625 -5.4375q-1.625 -1.859375 -4.046875 -1.859375q-2.453125 0 -4.078125 1.84375q-1.625 1.84375 -1.625 5.5625zm18.603882 9.671875l0 -19.359375l2.953125 0l0 2.75q2.140625 -3.1875 6.171875 -3.1875q1.75 0 3.21875 0.640625q1.46875 0.625 2.1875 1.640625q0.734375 1.015625 1.03125 2.421875q0.171875 0.90625 0.171875 3.1875l0 11.90625l-3.28125 0l0 -11.78125q0 -2.0 -0.390625 -2.984375q-0.375 -1.0 -1.359375 -1.59375q-0.96875 -0.59375 -2.28125 -0.59375q-2.09375 0 -3.625 1.328125q-1.515625 1.328125 -1.515625 5.046875l0 10.578125l-3.28125 0z" fill-rule="nonzero"/><path fill="#000000" fill-opacity="0.0" d="m260.89868 179.53596l0 249.85826" fill-rule="evenodd"/><path stroke="#999999" stroke-width="1.0" stroke-linejoin="round" stroke-linecap="butt" stroke-dasharray="4.0,3.0" d="m260.89868 179.53596l0 249.85826" fill-rule="evenodd"/><path fill="#000000" fill-opacity="0.0" d="m454.84412 179.53596l0 248.28346" fill-rule="evenodd"/><path stroke="#999999" stroke-width="1.0" stroke-linejoin="round" stroke-linecap="butt" stroke-dasharray="4.0,3.0" d="m454.84412 179.53596l0 248.28346" fill-rule="evenodd"/><path fill="#000000" fill-opacity="0.0" d="m502.59985 179.53596l0 248.28346" fill-rule="evenodd"/><path stroke="#999999" stroke-width="1.0" stroke-linejoin="round" stroke-linecap="butt" stroke-dasharray="4.0,3.0" d="m502.59985 179.53596l0 248.28346" fill-rule="evenodd"/><path fill="#000000" fill-opacity="0.0" d="m520.8732 179.53596l0 248.28346" fill-rule="evenodd"/><path stroke="#999999" stroke-width="1.0" stroke-linejoin="round" stroke-linecap="butt" stroke-dasharray="4.0,3.0" d="m520.8732 179.53596l0 248.28346" fill-rule="evenodd"/><path fill="#000000" fill-opacity="0.0" d="m724.8937 231.13591l0 0c1.2446289 0 2.4382935 0.7878723 3.3183594 2.190277c0.88012695 1.40242 1.3745117 3.3044891 1.3745117 5.287796l0 8.429703c0 4.13002 2.1011353 7.478058 4.692932 7.478058l0 0c-2.5917969 0 -4.692932 3.3480377 -4.692932 7.478073l0 8.4296875c0 4.1300354 -2.1010742 7.478058 -4.692871 7.478058z" fill-rule="evenodd"/><path fill="#000000" fill-opacity="0.0" d="m724.8937 231.13591l0 0c1.2446289 0 2.4382935 0.7878723 3.3183594 2.190277c0.88012695 1.40242 1.3745117 3.3044891 1.3745117 5.287796l0 8.429703c0 4.13002 2.1011353 7.478058 4.692932 7.478058l0 0c-2.5917969 0 -4.692932 3.3480377 -4.692932 7.478073l0 8.4296875c0 4.1300354 -2.1010742 7.478058 -4.692871 7.478058" fill-rule="evenodd"/><path stroke="#595959" stroke-width="2.0" stroke-linejoin="round" stroke-linecap="butt" d="m724.8937 231.13591l0 0c1.2446289 0 2.4382935 0.7878723 3.3183594 2.190277c0.88012695 1.40242 1.3745117 3.3044891 1.3745117 5.287796l0 8.429703c0 4.13002 2.1011353 7.478058 4.692932 7.478058l0 0c-2.5917969 0 -4.692932 3.3480377 -4.692932 7.478073l0 8.4296875c0 4.1300354 -2.1010742 7.478058 -4.692871 7.478058" fill-rule="evenodd"/><path fill="#000000" fill-opacity="0.0" d="m724.8937 395.98294l0 0c1.2446289 0 2.4382935 0.7878723 3.3183594 2.190277c0.88012695 1.4024048 1.3745117 3.3044739 1.3745117 5.287781l0 8.4296875c0 4.1300354 2.1011353 7.4780884 4.692932 7.4780884l0 0c-2.5917969 0 -4.692932 3.3480225 -4.692932 7.478058l0 8.4296875c0 4.1300354 -2.1010742 7.478058 -4.692871 7.478058z" fill-rule="evenodd"/><path fill="#000000" fill-opacity="0.0" d="m724.8937 395.98294l0 0c1.2446289 0 2.4382935 0.7878723 3.3183594 2.190277c0.88012695 1.4024048 1.3745117 3.3044739 1.3745117 5.287781l0 8.4296875c0 4.1300354 2.1011353 7.4780884 4.692932 7.4780884l0 0c-2.5917969 0 -4.692932 3.3480225 -4.692932 7.478058l0 8.4296875c0 4.1300354 -2.1010742 7.478058 -4.692871 7.478058" fill-rule="evenodd"/><path stroke="#595959" stroke-width="2.0" stroke-linejoin="round" stroke-linecap="butt" d="m724.8937 395.98294l0 0c1.2446289 0 2.4382935 0.7878723 3.3183594 2.190277c0.88012695 1.4024048 1.3745117 3.3044739 1.3745117 5.287781l0 8.4296875c0 4.1300354 2.1011353 7.4780884 4.692932 7.4780884l0 0c-2.5917969 0 -4.692932 3.3480225 -4.692932 7.478058l0 8.4296875c0 4.1300354 -2.1010742 7.478058 -4.692871 7.478058" fill-rule="evenodd"/><path fill="#000000" fill-opacity="0.0" d="m23.109833 360.62466l101.85827 0l0 24.251984l-101.85827 0z" fill-rule="evenodd"/><path fill="#666666" d="m33.125458 382.42468l0 -9.546875l1.296875 0l5.015625 7.5l0 -7.5l1.203125 0l0 9.546875l-1.296875 0l-5.015625 -7.5l0 7.5l-1.203125 0zm14.218903 -2.21875l1.203125 0.140625q-0.28125 1.0625 -1.0625 1.65625q-0.765625 0.578125 -1.96875 0.578125q-1.515625 0 -2.40625 -0.9375q-0.890625 -0.9375 -0.890625 -2.609375q0 -1.75 0.890625 -2.703125q0.90625 -0.96875 2.34375 -0.96875q1.390625 0 2.265625 0.9375q0.875 0.9375 0.875 2.65625q0 0.109375 0 0.3125l-5.15625 0q0.0625 1.140625 0.640625 1.75q0.578125 0.59375 1.4375 0.59375q0.65625 0 1.109375 -0.328125q0.453125 -0.34375 0.71875 -1.078125zm-3.84375 -1.90625l3.859375 0q-0.078125 -0.859375 -0.4375 -1.296875q-0.5625 -0.6875 -1.453125 -0.6875q-0.8125 0 -1.359375 0.546875q-0.546875 0.53125 -0.609375 1.4375zm6.3031006 4.703125l1.140625 0.15625q0.078125 0.53125 0.40625 0.78125q0.4375 0.3125 1.1875 0.3125q0.8125 0 1.25 -0.328125q0.453125 -0.3125 0.609375 -0.90625q0.09375 -0.359375 0.078125 -1.5q-0.765625 0.90625 -1.90625 0.90625q-1.4375 0 -2.21875 -1.03125q-0.78125 -1.03125 -0.78125 -2.46875q0 -0.984375 0.359375 -1.8125q0.359375 -0.84375 1.03125 -1.296875q0.6875 -0.453125 1.609375 -0.453125q1.21875 0 2.015625 0.984375l0 -0.828125l1.078125 0l0 5.96875q0 1.609375 -0.328125 2.28125q-0.328125 0.6875 -1.046875 1.078125q-0.703125 0.390625 -1.75 0.390625q-1.234375 0 -2.0 -0.5625q-0.75 -0.5625 -0.734375 -1.671875zm0.984375 -4.15625q0 1.359375 0.53125 1.984375q0.546875 0.625 1.359375 0.625q0.796875 0 1.34375 -0.625q0.546875 -0.625 0.546875 -1.953125q0 -1.265625 -0.5625 -1.90625q-0.5625 -0.640625 -1.359375 -0.640625q-0.765625 0 -1.3125 0.640625q-0.546875 0.625 -0.546875 1.875zm11.162476 2.71875q-0.65625 0.5625 -1.265625 0.796875q-0.59375 0.21875 -1.28125 0.21875q-1.140625 0 -1.75 -0.546875q-0.609375 -0.5625 -0.609375 -1.4375q0 -0.5 0.21875 -0.921875q0.234375 -0.421875 0.609375 -0.671875q0.375 -0.25 0.84375 -0.390625q0.34375 -0.078125 1.046875 -0.171875q1.421875 -0.171875 2.09375 -0.40625q0 -0.234375 0 -0.296875q0 -0.71875 -0.328125 -1.015625q-0.453125 -0.390625 -1.34375 -0.390625q-0.8125 0 -1.21875 0.296875q-0.390625 0.28125 -0.578125 1.015625l-1.140625 -0.15625q0.15625 -0.734375 0.515625 -1.1875q0.359375 -0.453125 1.03125 -0.6875q0.671875 -0.25 1.5625 -0.25q0.890625 0 1.4375 0.203125q0.5625 0.203125 0.8125 0.53125q0.265625 0.3125 0.375 0.796875q0.046875 0.296875 0.046875 1.078125l0 1.5625q0 1.625 0.078125 2.0625q0.078125 0.4375 0.296875 0.828125l-1.21875 0q-0.1875 -0.359375 -0.234375 -0.859375zm-0.09375 -2.609375q-0.640625 0.265625 -1.921875 0.4375q-0.71875 0.109375 -1.015625 0.25q-0.296875 0.125 -0.46875 0.375q-0.15625 0.25 -0.15625 0.546875q0 0.46875 0.34375 0.78125q0.359375 0.3125 1.046875 0.3125q0.671875 0 1.203125 -0.296875q0.53125 -0.296875 0.78125 -0.8125q0.1875 -0.390625 0.1875 -1.171875l0 -0.421875zm5.5531006 2.421875l0.171875 1.03125q-0.5 0.109375 -0.890625 0.109375q-0.640625 0 -1.0 -0.203125q-0.34375 -0.203125 -0.484375 -0.53125q-0.140625 -0.328125 -0.140625 -1.390625l0 -3.96875l-0.859375 0l0 -0.90625l0.859375 0l0 -1.71875l1.171875 -0.703125l0 2.421875l1.171875 0l0 0.90625l-1.171875 0l0 4.046875q0 0.5 0.046875 0.640625q0.0625 0.140625 0.203125 0.234375q0.140625 0.078125 0.40625 0.078125q0.203125 0 0.515625 -0.046875zm1.1561127 -7.140625l0 -1.359375l1.171875 0l0 1.359375l-1.171875 0zm0 8.1875l0 -6.90625l1.171875 0l0 6.90625l-1.171875 0zm4.86734 0l-2.625 -6.90625l1.234375 0l1.484375 4.140625q0.234375 0.65625 0.4375 1.390625q0.15625 -0.546875 0.4375 -1.3125l1.53125 -4.21875l1.21875 0l-2.625 6.90625l-1.09375 0zm9.4765625 -2.21875l1.203125 0.140625q-0.28125 1.0625 -1.0625 1.65625q-0.765625 0.578125 -1.96875 0.578125q-1.515625 0 -2.40625 -0.9375q-0.890625 -0.9375 -0.890625 -2.609375q0 -1.75 0.890625 -2.703125q0.90625 -0.96875 2.34375 -0.96875q1.390625 0 2.265625 0.9375q0.875 0.9375 0.875 2.65625q0 0.109375 0 0.3125l-5.15625 0q0.0625 1.140625 0.640625 1.75q0.578125 0.59375 1.4375 0.59375q0.65625 0 1.109375 -0.328125q0.453125 -0.34375 0.71875 -1.078125zm-3.84375 -1.90625l3.859375 0q-0.078125 -0.859375 -0.4375 -1.296875q-0.5625 -0.6875 -1.453125 -0.6875q-0.8125 0 -1.359375 0.546875q-0.546875 0.53125 -0.609375 1.4375zm6.0531006 2.0625l1.15625 -0.1875q0.109375 0.703125 0.546875 1.078125q0.453125 0.359375 1.25 0.359375q0.8125 0 1.203125 -0.328125q0.390625 -0.328125 0.390625 -0.765625q0 -0.390625 -0.359375 -0.625q-0.234375 -0.15625 -1.1875 -0.390625q-1.296875 -0.328125 -1.796875 -0.5625q-0.484375 -0.25 -0.75 -0.65625q-0.25 -0.421875 -0.25 -0.9375q0 -0.453125 0.203125 -0.84375q0.21875 -0.40625 0.578125 -0.671875q0.28125 -0.1875 0.75 -0.328125q0.46875 -0.140625 1.015625 -0.140625q0.8125 0 1.421875 0.234375q0.609375 0.234375 0.90625 0.640625q0.296875 0.390625 0.40625 1.0625l-1.140625 0.15625q-0.078125 -0.53125 -0.453125 -0.828125q-0.375 -0.3125 -1.0625 -0.3125q-0.8125 0 -1.15625 0.265625q-0.34375 0.265625 -0.34375 0.625q0 0.234375 0.140625 0.421875q0.15625 0.1875 0.453125 0.3125q0.171875 0.0625 1.03125 0.296875q1.25 0.328125 1.734375 0.546875q0.5 0.203125 0.78125 0.609375q0.28125 0.40625 0.28125 1.0q0 0.59375 -0.34375 1.109375q-0.34375 0.515625 -1.0 0.796875q-0.640625 0.28125 -1.453125 0.28125q-1.34375 0 -2.046875 -0.5625q-0.703125 -0.5625 -0.90625 -1.65625z" fill-rule="nonzero"/><path fill="#000000" fill-opacity="0.0" d="m639.7793 9.929133l103.433105 0l0 36.7874l-103.433105 0z" fill-rule="evenodd"/><path fill="#666666" d="m680.54675 34.182835q-0.296875 0 -0.484375 -0.171875q-0.1875 -0.1875 -0.1875 -0.46875l0 -10.0q0 -0.28125 0.1875 -0.453125q0.1875 -0.1875 0.484375 -0.1875l3.125 0q2.703125 0 4.171875 1.46875q1.484375 1.453125 1.484375 4.171875q0 2.703125 -1.484375 4.171875q-1.484375 1.46875 -4.171875 1.46875l-3.125 0zm3.046875 -1.125q4.375 0 4.375 -4.515625q0 -4.515625 -4.375 -4.515625l-2.40625 0l0 9.03125l2.40625 0zm11.105286 -6.859375q2.921875 0 2.921875 3.078125l0 4.34375q0 0.296875 -0.171875 0.46875q-0.171875 0.171875 -0.453125 0.171875q-0.28125 0 -0.46875 -0.171875q-0.171875 -0.171875 -0.171875 -0.46875l0 -0.765625q-0.296875 0.6875 -0.921875 1.0625q-0.625 0.375 -1.4375 0.375q-0.765625 0 -1.40625 -0.296875q-0.625 -0.3125 -1.0 -0.84375q-0.359375 -0.546875 -0.359375 -1.203125q0 -0.890625 0.453125 -1.375q0.453125 -0.484375 1.46875 -0.703125q1.03125 -0.21875 2.859375 -0.21875l0.34375 0l0 -0.53125q0 -0.953125 -0.390625 -1.390625q-0.390625 -0.453125 -1.265625 -0.453125q-1.09375 0 -2.21875 0.59375q-0.421875 0.265625 -0.609375 0.265625q-0.1875 0 -0.3125 -0.140625q-0.125 -0.15625 -0.125 -0.375q0 -0.21875 0.125 -0.390625q0.140625 -0.171875 0.453125 -0.34375q0.546875 -0.3125 1.265625 -0.5q0.71875 -0.1875 1.421875 -0.1875zm-0.53125 7.078125q0.953125 0 1.5625 -0.640625q0.625 -0.65625 0.625 -1.6875l0 -0.46875l-0.28125 0q-1.40625 0 -2.15625 0.125q-0.734375 0.125 -1.046875 0.40625q-0.3125 0.28125 -0.3125 0.8125q0 0.625 0.453125 1.046875q0.46875 0.40625 1.15625 0.40625zm9.41748 -0.03125q0.5625 0.046875 0.5625 0.5q0 0.28125 -0.203125 0.421875q-0.203125 0.125 -0.59375 0.09375l-0.4375 -0.03125q-1.28125 -0.09375 -1.890625 -0.765625q-0.609375 -0.671875 -0.609375 -2.03125l0 -4.015625l-1.0625 0q-0.28125 0 -0.4375 -0.140625q-0.140625 -0.140625 -0.140625 -0.359375q0 -0.234375 0.140625 -0.375q0.15625 -0.15625 0.4375 -0.15625l1.0625 0l0 -1.796875q0 -0.3125 0.171875 -0.46875q0.1875 -0.171875 0.484375 -0.171875q0.296875 0 0.46875 0.171875q0.171875 0.15625 0.171875 0.46875l0 1.796875l1.78125 0q0.25 0 0.40625 0.15625q0.15625 0.140625 0.15625 0.375q0 0.21875 -0.15625 0.359375q-0.15625 0.140625 -0.40625 0.140625l-1.78125 0l0 4.078125q0 0.875 0.359375 1.265625q0.359375 0.390625 1.09375 0.453125l0.421875 0.03125zm5.0338135 -7.046875q2.921875 0 2.921875 3.078125l0 4.34375q0 0.296875 -0.171875 0.46875q-0.171875 0.171875 -0.453125 0.171875q-0.28125 0 -0.46875 -0.171875q-0.171875 -0.171875 -0.171875 -0.46875l0 -0.765625q-0.296875 0.6875 -0.921875 1.0625q-0.625 0.375 -1.4375 0.375q-0.765625 0 -1.40625 -0.296875q-0.625 -0.3125 -1.0 -0.84375q-0.359375 -0.546875 -0.359375 -1.203125q0 -0.890625 0.453125 -1.375q0.453125 -0.484375 1.46875 -0.703125q1.03125 -0.21875 2.859375 -0.21875l0.34375 0l0 -0.53125q0 -0.953125 -0.390625 -1.390625q-0.390625 -0.453125 -1.265625 -0.453125q-1.09375 0 -2.21875 0.59375q-0.421875 0.265625 -0.609375 0.265625q-0.1875 0 -0.3125 -0.140625q-0.125 -0.15625 -0.125 -0.375q0 -0.21875 0.125 -0.390625q0.140625 -0.171875 0.453125 -0.34375q0.546875 -0.3125 1.265625 -0.5q0.71875 -0.1875 1.421875 -0.1875zm-0.53125 7.078125q0.953125 0 1.5625 -0.640625q0.625 -0.65625 0.625 -1.6875l0 -0.46875l-0.28125 0q-1.40625 0 -2.15625 0.125q-0.734375 0.125 -1.046875 0.40625q-0.3125 0.28125 -0.3125 0.8125q0 0.625 0.453125 1.046875q0.46875 0.40625 1.15625 0.40625zm8.44873 1.015625q-0.734375 0 -1.40625 -0.171875q-0.65625 -0.171875 -1.171875 -0.5q-0.296875 -0.1875 -0.421875 -0.359375q-0.109375 -0.171875 -0.109375 -0.40625q0 -0.203125 0.109375 -0.34375q0.125 -0.140625 0.328125 -0.140625q0.1875 0 0.5625 0.25q0.46875 0.28125 0.9375 0.453125q0.484375 0.171875 1.1875 0.171875q0.859375 0 1.328125 -0.296875q0.484375 -0.3125 0.484375 -0.890625q0 -0.359375 -0.171875 -0.5625q-0.171875 -0.21875 -0.609375 -0.390625q-0.421875 -0.171875 -1.265625 -0.34375q-1.40625 -0.3125 -2.015625 -0.8125q-0.609375 -0.515625 -0.609375 -1.390625q0 -0.6875 0.390625 -1.21875q0.390625 -0.53125 1.0625 -0.828125q0.6875 -0.3125 1.546875 -0.3125q0.625 0 1.203125 0.171875q0.59375 0.171875 1.03125 0.46875q0.546875 0.390625 0.546875 0.796875q0 0.203125 -0.125 0.359375q-0.125 0.140625 -0.296875 0.140625q-0.203125 0 -0.578125 -0.265625q-0.453125 -0.296875 -0.859375 -0.453125q-0.390625 -0.15625 -0.984375 -0.15625q-0.75 0 -1.21875 0.34375q-0.453125 0.328125 -0.453125 0.875q0 0.359375 0.171875 0.578125q0.171875 0.21875 0.5625 0.390625q0.390625 0.15625 1.125 0.3125q1.09375 0.25 1.6875 0.546875q0.609375 0.28125 0.859375 0.703125q0.25 0.40625 0.25 1.046875q0 1.0 -0.84375 1.625q-0.84375 0.609375 -2.234375 0.609375zm11.086304 -1.921875q0.171875 0 0.296875 0.15625q0.125 0.140625 0.125 0.359375q0 0.40625 -0.546875 0.734375q-0.578125 0.34375 -1.21875 0.515625q-0.640625 0.15625 -1.25 0.15625q-1.8125 0 -2.859375 -1.0625q-1.046875 -1.078125 -1.046875 -2.96875q0 -1.203125 0.453125 -2.109375q0.46875 -0.921875 1.3125 -1.4375q0.84375 -0.515625 1.921875 -0.515625q1.515625 0 2.40625 1.0q0.90625 0.984375 0.90625 2.6875q0 0.3125 -0.140625 0.453125q-0.125 0.140625 -0.40625 0.140625l-5.15625 0q0.140625 2.765625 2.609375 2.765625q0.625 0 1.0625 -0.171875q0.453125 -0.171875 0.96875 -0.453125q0.421875 -0.25 0.5625 -0.25zm-2.796875 -5.15625q-1.03125 0 -1.65625 0.640625q-0.609375 0.625 -0.71875 1.796875l4.53125 0q-0.03125 -1.1875 -0.59375 -1.8125q-0.5625 -0.625 -1.5625 -0.625zm8.743347 6.03125q0.5625 0.046875 0.5625 0.5q0 0.28125 -0.203125 0.421875q-0.203125 0.125 -0.59375 0.09375l-0.4375 -0.03125q-1.28125 -0.09375 -1.890625 -0.765625q-0.609375 -0.671875 -0.609375 -2.03125l0 -4.015625l-1.0625 0q-0.28125 0 -0.4375 -0.140625q-0.140625 -0.140625 -0.140625 -0.359375q0 -0.234375 0.140625 -0.375q0.15625 -0.15625 0.4375 -0.15625l1.0625 0l0 -1.796875q0 -0.3125 0.171875 -0.46875q0.1875 -0.171875 0.484375 -0.171875q0.296875 0 0.46875 0.171875q0.171875 0.15625 0.171875 0.46875l0 1.796875l1.78125 0q0.25 0 0.40625 0.15625q0.15625 0.140625 0.15625 0.375q0 0.21875 -0.15625 0.359375q-0.15625 0.140625 -0.40625 0.140625l-1.78125 0l0 4.078125q0 0.875 0.359375 1.265625q0.359375 0.390625 1.09375 0.453125l0.421875 0.03125z" fill-rule="nonzero"/></g></svg>